<svg width="20" height="20" viewBox="0 0 20 20" fill="none" xmlns="http://www.w3.org/2000/svg">
<path opacity="0.5" fill-rule="evenodd" clip-rule="evenodd" d="M8 20H12C15.7712 20 17.6569 20 18.8284 18.8284C20 17.6569 20 15.7712 20 12V11.5629C20 10.6901 20 10.0344 19.9574 9.50011H16L15.9051 9.50011C14.808 9.5002 13.8385 9.50027 13.0569 9.3952C12.2098 9.28131 11.3628 9.0198 10.6716 8.32853C9.9803 7.63726 9.7188 6.79028 9.60491 5.94316C9.49983 5.16164 9.49991 4.19207 9.5 3.09497L9.50923 0.260566C9.50951 0.178128 9.51656 0.0965928 9.53001 0.0166612C9.1214 -4.26546e-07 8.6358 0 8.02979 0C4.23869 0 2.34315 0 1.17157 1.17157C0 2.34315 0 4.22876 0 8V12C0 15.7712 0 17.6569 1.17157 18.8284C2.34315 20 4.22876 20 8 20Z" fill="#184E65"/>
<path d="M7.01296 17.0472C6.72446 17.3176 6.27554 17.3176 5.98705 17.0472L3.98705 15.1722C3.68486 14.8889 3.66955 14.4142 3.95285 14.112C4.23615 13.8099 4.71077 13.7945 5.01296 14.0778L5.75 14.7688V11.5C5.75 11.0858 6.08579 10.75 6.5 10.75C6.91422 10.75 7.25 11.0858 7.25 11.5L7.25 14.7688L7.98705 14.0778C8.28923 13.7945 8.76386 13.8099 9.04716 14.112C9.33045 14.4142 9.31514 14.8889 9.01296 15.1722L7.01296 17.0472Z" fill="#184E65"/>
<path d="M9.50924 0.260097L9.5 3.0945C9.49992 4.1916 9.49984 5.16117 9.60491 5.94269C9.71881 6.78981 9.98031 7.6368 10.6716 8.32807C11.3629 9.01934 12.2098 9.28084 13.057 9.39473C13.8385 9.49981 14.808 9.49973 15.9051 9.49965L19.9574 9.49964C19.9698 9.65519 19.9786 9.82103 19.9848 9.99953H20C20 9.73204 20 9.5983 19.9901 9.44082C19.9335 8.54626 19.5617 7.52125 19.0315 6.79853C18.9382 6.6713 18.8743 6.59493 18.7467 6.44218C17.9542 5.49359 16.911 4.31193 16 3.49953C15.1892 2.77645 14.0787 1.98536 13.1101 1.3385C12.2781 0.782745 11.862 0.504869 11.2915 0.29834C11.1403 0.243585 10.9408 0.183107 10.7846 0.14466C10.4006 0.0501331 10.0268 0.0172536 9.5 0.00585938L9.50924 0.260097Z" fill="#184E65"/>
</svg>
