<svg width="31" height="31" viewBox="0 0 31 31" fill="none" xmlns="http://www.w3.org/2000/svg">
<path d="M27.4542 0.365234H3.88274C3.03026 0.365234 2.21269 0.703881 1.6099 1.30668C1.0071 1.90947 0.668457 2.72704 0.668457 3.57952L0.668457 27.1509C0.668457 28.0034 1.0071 28.821 1.6099 29.4238C2.21269 30.0266 3.03026 30.3652 3.88274 30.3652H13.0736V20.1659H8.85484V15.3652H13.0736V11.7063C13.0736 7.54448 15.5513 5.24559 19.3461 5.24559C21.1635 5.24559 23.064 5.5697 23.064 5.5697V9.65452H20.97C18.9069 9.65452 18.2633 10.9349 18.2633 12.248V15.3652H22.8691L22.1325 20.1659H18.2633V30.3652H27.4542C28.3067 30.3652 29.1242 30.0266 29.727 29.4238C30.3298 28.821 30.6685 28.0034 30.6685 27.1509V3.57952C30.6685 2.72704 30.3298 1.90947 29.727 1.30668C29.1242 0.703881 28.3067 0.365234 27.4542 0.365234Z" fill="white"/>
</svg>
