<svg width="40" height="40" viewBox="0 0 40 40" fill="none" xmlns="http://www.w3.org/2000/svg">
<path opacity="0.8" d="M20 40C31.0457 40 40 31.0457 40 20C40 8.9543 31.0457 0 20 0C8.9543 0 0 8.9543 0 20C0 31.0457 8.9543 40 20 40Z" fill="#184E65"/>
<path d="M23.0607 12.9393C22.4749 12.3536 21.5251 12.3536 20.9393 12.9393C20.3536 13.5251 20.3536 14.4749 20.9393 15.0607L24.3787 18.5H12C11.1716 18.5 10.5 19.1716 10.5 20C10.5 20.8284 11.1716 21.5 12 21.5H24.3787L20.9393 24.9393C20.3536 25.5251 20.3536 26.4749 20.9393 27.0607C21.5251 27.6464 22.4749 27.6464 23.0607 27.0607L29.0607 21.0607C29.6464 20.4749 29.6464 19.5251 29.0607 18.9393L23.0607 12.9393Z" fill="white"/>
</svg>
