<svg width="31" height="31" viewBox="0 0 31 31" fill="none" xmlns="http://www.w3.org/2000/svg">
<path d="M28.4743 0.365234H2.75335C1.57478 0.365234 0.617188 1.33622 0.617188 2.52818V28.2023C0.617188 29.3943 1.57478 30.3652 2.75335 30.3652H28.4743C29.6529 30.3652 30.6172 29.3943 30.6172 28.2023V2.52818C30.6172 1.33622 29.6529 0.365234 28.4743 0.365234ZM9.68415 26.0795H5.23772V11.7626H9.69085V26.0795H9.68415ZM7.46094 9.8072C6.0346 9.8072 4.88281 8.64872 4.88281 7.22907C4.88281 5.80943 6.0346 4.65095 7.46094 4.65095C8.88058 4.65095 10.0391 5.80943 10.0391 7.22907C10.0391 8.65541 8.88728 9.8072 7.46094 9.8072ZM26.3516 26.0795H21.9051V19.1152C21.9051 17.4545 21.8717 15.3184 19.5949 15.3184C17.2779 15.3184 16.923 17.1264 16.923 18.9947V26.0795H12.4766V11.7626H16.7422V13.7179H16.8025C17.3984 12.5929 18.8516 11.4076 21.0145 11.4076C25.5145 11.4076 26.3516 14.3742 26.3516 18.2313V26.0795Z" fill="white"/>
</svg>
