<svg width="31" height="32" viewBox="0 0 31 32" fill="none" xmlns="http://www.w3.org/2000/svg">
<path d="M30.2255 24.2087V14.9578C30.2255 13.2541 30.2255 12.4023 29.7548 11.761C29.3745 11.243 28.7643 10.9676 27.676 10.5969C27.4535 13.2191 26.569 15.8969 25.18 18.2405C23.5627 20.9694 21.1609 23.4093 18.0826 24.7278C16.2886 25.4962 14.2333 25.4962 12.4393 24.7278C9.36099 23.4093 6.95925 20.9694 5.34192 18.2405C4.28837 16.4628 3.52508 14.4929 3.12073 12.5009C2.48466 12.4089 1.99653 12.4561 1.5753 12.6869C1.40724 12.7789 1.25059 12.8898 1.10849 13.0172C0.296387 13.7455 0.296387 15.0995 0.296387 17.8077V25.8554C0.296387 27.5591 0.296387 28.4109 0.767167 29.0522C1.23795 29.6935 2.06102 29.9629 3.70717 30.5016L4.34494 30.7103C6.96703 31.5685 8.27808 31.9975 9.61911 32C10.023 32.0008 10.4264 31.9726 10.8262 31.9158C12.1534 31.7271 13.4002 31.115 15.8938 29.8909C17.8048 28.9528 18.7603 28.4837 19.7753 28.2661C20.1315 28.1897 20.4925 28.1364 20.8558 28.1066C21.8911 28.0215 22.9356 28.1924 25.0247 28.5343L25.0247 28.5343C27.142 28.8807 28.2006 29.054 28.9735 28.6182C29.236 28.4702 29.4688 28.2765 29.6607 28.0466C30.2255 27.3698 30.2255 26.3161 30.2255 24.2087Z" fill="#184E65"/>
<path fill-rule="evenodd" clip-rule="evenodd" d="M15.2608 0C9.751 0 5.28442 4.16632 5.28442 9.30574C5.28442 14.4049 8.46854 20.3551 13.4365 22.483C14.5946 22.979 15.927 22.979 17.0852 22.483C22.0531 20.3551 25.2372 14.4049 25.2372 9.30574C25.2372 4.16632 20.7706 0 15.2608 0ZM15.2608 13.06C17.0974 13.06 18.5863 11.5982 18.5863 9.79499C18.5863 7.99178 17.0974 6.52999 15.2608 6.52999C13.4242 6.52999 11.9353 7.99178 11.9353 9.79499C11.9353 11.5982 13.4242 13.06 15.2608 13.06Z" fill="#184E65"/>
</svg>
