<svg width="33" height="32" viewBox="0 0 33 32" fill="none" xmlns="http://www.w3.org/2000/svg">
<path d="M12.5952 2.63234L13.9172 4.9582C15.1103 7.05717 14.6314 9.81065 12.7523 11.6556C12.7523 11.6556 12.7523 11.6556 12.7523 11.6556C12.7522 11.6557 10.4731 13.8936 14.6056 17.951C18.7374 22.0077 21.0167 19.7714 21.0175 19.7706C21.0176 19.7706 21.0175 19.7706 21.0176 19.7705C22.8967 17.9256 25.7011 17.4554 27.839 18.6268L30.2079 19.9248C33.4361 21.6937 33.8173 26.1385 30.9798 28.9244C29.2748 30.5984 27.1861 31.901 24.8771 31.9869C20.9902 32.1316 14.3892 31.1657 7.76764 24.6646C1.14609 18.1634 0.162379 11.6824 0.309733 7.86618C0.397265 5.5992 1.72395 3.54847 3.42895 1.87446C6.26644 -0.911436 10.7936 -0.537126 12.5952 2.63234Z" fill="#184E65"/>
</svg>
