<svg width="33" height="32" viewBox="0 0 33 32" fill="none" xmlns="http://www.w3.org/2000/svg">
<path d="M22.7038 16C22.7038 17.3875 22.6274 18.725 22.4937 20H10.6916C10.5516 18.725 10.4816 17.3875 10.4816 16C10.4816 14.6125 10.558 13.275 10.6916 12H22.4937C22.6338 13.275 22.7038 14.6125 22.7038 16ZM24.5371 12H32.3734C32.7107 13.2812 32.889 14.6187 32.889 16C32.889 17.3813 32.7107 18.7188 32.3734 20H24.5371C24.6708 18.7125 24.7408 17.375 24.7408 16C24.7408 14.625 24.6708 13.2875 24.5371 12ZM31.705 10H24.2761C23.6396 6.00625 22.3791 2.6625 20.7559 0.525C25.7403 1.81875 29.7952 5.36875 31.6986 10H31.705ZM22.2136 10H10.9717C11.36 7.725 11.9584 5.7125 12.6905 4.08125C13.3589 2.60625 14.1037 1.5375 14.823 0.8625C15.536 0.2 16.128 0 16.5927 0C17.0574 0 17.6494 0.2 18.3624 0.8625C19.0817 1.5375 19.8265 2.60625 20.4949 4.08125C21.2333 5.70625 21.8253 7.71875 22.2136 10ZM8.90924 10H1.48041C3.39014 5.36875 7.43875 1.81875 12.4295 0.525C10.8062 2.6625 9.54581 6.00625 8.90924 10ZM0.812012 12H8.64824C8.51456 13.2875 8.44454 14.625 8.44454 16C8.44454 17.375 8.51456 18.7125 8.64824 20H0.812012C0.474627 18.7188 0.296387 17.3813 0.296387 16C0.296387 14.6187 0.474627 13.2812 0.812012 12ZM12.6905 27.9125C11.9521 26.2875 11.36 24.275 10.9717 22H22.2136C21.8253 24.275 21.2269 26.2875 20.4949 27.9125C19.8265 29.3875 19.0817 30.4563 18.3624 31.1313C17.6494 31.8 17.0574 32 16.5927 32C16.128 32 15.536 31.8 14.823 31.1375C14.1037 30.4625 13.3589 29.3938 12.6905 27.9188V27.9125ZM8.90924 22C9.54581 25.9937 10.8062 29.3375 12.4295 31.475C7.43875 30.1812 3.39014 26.6313 1.48041 22H8.90924ZM31.705 22C29.7952 26.6313 25.7466 30.1812 20.7622 31.475C22.3855 29.3375 23.6396 25.9937 24.2825 22H31.705Z" fill="#184E65"/>
</svg>
