<svg width="354" height="90" viewBox="0 0 354 90" fill="none" xmlns="http://www.w3.org/2000/svg">
<path d="M120.419 25.8125L137.912 63.425H133.863L127.963 51.0497H111.802L105.959 63.425H101.775L119.501 25.8125H120.419ZM119.946 33.8052L113.519 47.4192H126.344L119.946 33.8052Z" fill="#B4BDC7"/>
<path d="M178.475 32.9152L175.562 35.1685C173.955 33.0608 172.022 31.4628 169.768 30.3746C167.514 29.2864 165.039 28.7443 162.343 28.7443C159.394 28.7443 156.666 29.4563 154.15 30.8803C151.639 32.3043 149.69 34.2219 148.308 36.6249C146.926 39.0279 146.235 41.7303 146.235 44.732C146.235 49.2711 147.782 53.0576 150.872 56.0918C153.961 59.1259 157.863 60.647 162.568 60.647C167.743 60.647 172.074 58.6081 175.558 54.5262L178.471 56.7512C176.627 59.1137 174.328 60.9382 171.572 62.2288C168.816 63.5193 165.738 64.1625 162.339 64.1625C155.874 64.1625 150.771 61.9941 147.034 57.6614C143.9 54.0002 142.337 49.5826 142.337 44.4043C142.337 38.9551 144.234 34.3715 148.031 30.6537C151.824 26.9359 156.577 25.075 162.291 25.075C165.742 25.075 168.856 25.7627 171.636 27.1382C174.417 28.5137 176.695 30.4393 178.471 32.9192L178.475 32.9152Z" fill="#B4BDC7"/>
<path d="M182.9 29.4961V25.8125H202.812V29.4961H194.711V63.425H191.006V29.4961H182.904H182.9Z" fill="#B4BDC7"/>
<path d="M208.712 25.8125H212.384V48.3948C212.384 51.0742 212.436 52.7412 212.536 53.404C212.719 54.8799 213.143 56.1119 213.81 57.104C214.477 58.0961 215.5 58.9255 216.882 59.5964C218.265 60.2673 219.655 60.6007 221.053 60.6007C222.268 60.6007 223.434 60.3364 224.553 59.8119C225.667 59.2874 226.602 58.5596 227.353 57.6245C228.104 56.6933 228.652 55.563 229.003 54.2416C229.255 53.2942 229.379 51.3426 229.379 48.3948V25.8125H233.05V48.3948C233.05 51.7329 232.73 54.4327 232.087 56.4941C231.444 58.5556 230.162 60.3486 228.24 61.8734C226.314 63.3981 223.989 64.1625 221.257 64.1625C218.293 64.1625 215.752 63.4428 213.634 61.9994C211.517 60.5601 210.103 58.6531 209.388 56.2786C208.936 54.819 208.712 52.1923 208.712 48.3948V25.8125Z" fill="#B4BDC7"/>
<path d="M257.594 25.8125L275.088 63.425H271.038L265.138 51.0497H248.977L243.134 63.425H238.95L256.676 25.8125H257.594ZM257.121 33.8052L250.694 47.4192H263.519L257.121 33.8052Z" fill="#B4BDC7"/>
<path d="M280.987 25.8125H284.787V59.7946H299.425V63.425H280.987V25.8125Z" fill="#B4BDC7"/>
<path d="M302.375 25.8125H306.626L316.083 41.3236L325.392 25.8125H329.663L317.955 45.4487V63.425H314.311V45.4487L302.375 25.8125Z" fill="#B4BDC7"/>
<path d="M331.875 56.2949L335.087 54.3977C337.347 58.4954 339.959 60.5462 342.925 60.5462C344.19 60.5462 345.382 60.255 346.495 59.6725C347.608 59.09 348.454 58.3093 349.038 57.3304C349.621 56.3515 349.913 55.3159 349.913 54.2197C349.913 52.9698 349.485 51.7482 348.627 50.5508C347.444 48.8964 345.287 46.9062 342.153 44.5803C339.002 42.2382 337.039 40.5393 336.27 39.4957C334.935 37.7401 334.266 35.843 334.266 33.8043C334.266 32.1862 334.66 30.7098 335.449 29.379C336.238 28.0481 337.347 26.9964 338.776 26.2278C340.206 25.4593 341.763 25.075 343.439 25.075C345.221 25.075 346.885 25.5078 348.434 26.3775C349.983 27.2472 351.626 28.845 353.355 31.1709L350.27 33.4726C348.849 31.6159 347.637 30.3943 346.635 29.8037C345.632 29.2131 344.54 28.9178 343.361 28.9178C341.837 28.9178 340.592 29.3749 339.622 30.2851C338.653 31.1952 338.172 32.3157 338.172 33.6506C338.172 34.4596 338.345 35.2443 338.686 36.0048C339.027 36.7653 339.651 37.5905 340.563 38.4844C341.06 38.9577 342.687 40.1955 345.443 42.2018C348.713 44.5803 350.96 46.6959 352.176 48.5526C353.392 50.4093 354 52.27 354 54.1429C354 56.8409 352.961 59.1871 350.878 61.1773C348.795 63.1674 346.265 64.1625 343.287 64.1625C340.99 64.1625 338.912 63.5598 337.043 62.3544C335.174 61.1489 333.457 59.1304 331.879 56.2949H331.875Z" fill="#B4BDC7"/>
<path d="M76.1687 13.0688C67.7426 4.64269 56.5391 0 44.6187 0C32.6984 0 21.4949 4.64269 13.0688 13.0688C4.6427 21.4949 0 32.6984 0 44.6188C0 56.5391 4.6427 67.7426 13.0688 76.1687C21.4949 84.5948 32.6984 89.2375 44.6187 89.2375C56.5391 89.2375 67.7426 84.5948 76.1687 76.1687C84.5948 67.7426 89.2375 56.5391 89.2375 44.6188C89.2375 32.6984 84.5948 21.4949 76.1687 13.0688ZM88.59 44.6188C88.59 46.9279 88.4108 49.1963 88.0646 51.4117C85.9754 47.5713 82.9332 44.3255 79.2231 41.9838C75.1587 39.4222 70.4631 38.0701 65.6371 38.0701C63.7597 38.0701 61.8904 38.2778 60.0822 38.681C60.017 24.5574 54.7675 11.0854 45.2744 0.655673C69.2169 1.00998 88.59 20.5908 88.59 44.6188ZM56.4454 86.8673C52.2548 84.2568 48.4225 81.1046 45.0464 77.4964C54.6983 67.0218 60.0333 53.4277 60.0863 39.1738C61.8945 38.7624 63.7597 38.5547 65.6412 38.5547C75.1058 38.5547 83.6296 43.7798 87.9384 52.2018C87.4497 54.9956 86.6962 57.6997 85.7066 60.2858C85.6781 60.2532 85.6455 60.2206 85.617 60.1881C85.5559 60.1229 85.4989 60.0578 85.4378 59.9967C85.3889 59.9478 85.3401 59.8949 85.2912 59.846C85.2342 59.7849 85.1731 59.7238 85.1161 59.6668C85.0672 59.6179 85.0143 59.5691 84.9613 59.5161C84.9002 59.4591 84.8432 59.4021 84.7821 59.345C84.7292 59.2962 84.6763 59.2473 84.6233 59.1984C84.5622 59.1455 84.5052 59.0885 84.4441 59.0356C84.3912 58.9867 84.3342 58.9378 84.2771 58.8889C84.216 58.836 84.159 58.783 84.0979 58.7342C84.0409 58.6853 83.9839 58.6405 83.9269 58.5916C83.8658 58.5428 83.8047 58.4939 83.7477 58.445C83.6907 58.3962 83.6296 58.3514 83.5685 58.3066C83.5074 58.2577 83.4463 58.2129 83.3853 58.164C83.3242 58.1192 83.2631 58.0744 83.202 58.0296C83.1409 57.9848 83.0798 57.94 83.0187 57.8952C82.9576 57.8504 82.8966 57.8056 82.8314 57.7649C82.7703 57.7201 82.7051 57.6794 82.6441 57.6346C82.583 57.5939 82.5178 57.5491 82.4527 57.5084C82.3875 57.4676 82.3264 57.4269 82.2612 57.3821C82.1961 57.3414 82.1309 57.3006 82.0658 57.2599C82.0006 57.2192 81.9395 57.1825 81.8743 57.1418C81.8092 57.1011 81.744 57.0644 81.6789 57.0237C81.6137 56.9871 81.5485 56.9463 81.4834 56.9097C81.4182 56.873 81.349 56.8323 81.2838 56.7957C81.2187 56.759 81.1535 56.7223 81.0883 56.6898C81.0191 56.6531 80.9539 56.6165 80.8847 56.5839C80.8196 56.5513 80.7503 56.5146 80.6852 56.4821C80.6159 56.4495 80.5467 56.4128 80.4775 56.3802C80.4082 56.3477 80.3431 56.3151 80.2738 56.2825C80.2046 56.2499 80.1354 56.2174 80.0661 56.1848C79.9969 56.1522 79.9317 56.1237 79.8625 56.0952C79.7933 56.0626 79.724 56.0341 79.6507 56.0056C79.5815 55.9771 79.5123 55.9486 79.443 55.9201C79.3738 55.8915 79.3005 55.863 79.2313 55.8345C79.162 55.806 79.0887 55.7816 79.0195 55.7531C78.9503 55.7246 78.877 55.7001 78.8036 55.6757C78.7344 55.6513 78.6611 55.6268 78.5878 55.6024C78.5145 55.5779 78.4453 55.5535 78.372 55.5291C78.2987 55.5046 78.2294 55.4843 78.1561 55.4599C78.0828 55.4354 78.0136 55.4151 77.9403 55.3906C77.867 55.3703 77.7937 55.3458 77.7203 55.3255C77.647 55.3051 77.5778 55.2847 77.5045 55.2644C77.4312 55.244 77.3538 55.2236 77.2805 55.2074C77.2072 55.187 77.138 55.1707 77.0647 55.1503C76.9873 55.13 76.914 55.1137 76.8366 55.0974C76.7633 55.0811 76.6941 55.0648 76.6208 55.0485C76.5434 55.0322 76.466 55.0159 76.3886 54.9997C76.3153 54.9834 76.2461 54.9711 76.1728 54.9549C76.0954 54.9386 76.014 54.9264 75.9366 54.9141C75.8633 54.9019 75.794 54.8897 75.7207 54.8775C75.6393 54.8653 75.5578 54.853 75.4764 54.8408C75.4072 54.8286 75.3338 54.8205 75.2646 54.8083C75.1832 54.796 75.0976 54.7879 75.0162 54.7797C74.947 54.7716 74.8777 54.7635 74.8085 54.7553C74.723 54.7472 74.6374 54.739 74.5479 54.7309C74.4827 54.7227 74.4134 54.7187 74.3483 54.7105C74.2546 54.7024 74.165 54.6983 74.0714 54.6901C74.0103 54.6901 73.9492 54.682 73.8881 54.6779C73.7863 54.6739 73.6845 54.6698 73.5786 54.6657C73.5256 54.6657 73.4768 54.6616 73.4238 54.6576C73.2691 54.6535 73.1143 54.6494 72.9596 54.6494C63.4624 54.6494 55.7368 62.375 55.7368 71.8722C55.7368 72.0351 55.7368 72.198 55.7449 72.3609C55.7449 72.4138 55.749 72.4709 55.7531 72.5238C55.7531 72.6338 55.7612 72.7396 55.7653 72.8496C55.7653 72.9148 55.7734 72.9758 55.7775 73.041C55.7856 73.1387 55.7897 73.2365 55.7979 73.3342C55.8019 73.4035 55.8101 73.4727 55.8182 73.5379C55.8264 73.6315 55.8345 73.7211 55.8467 73.8148C55.8549 73.884 55.863 73.9533 55.8712 74.0266C55.8834 74.1162 55.8915 74.2058 55.9037 74.2953C55.9119 74.3687 55.9241 74.4379 55.9363 74.5112C55.9486 74.5967 55.9608 74.6863 55.9771 74.7718C55.9893 74.8451 56.0015 74.9144 56.0178 74.9877C56.0341 75.0732 56.0504 75.1587 56.0667 75.2443C56.0789 75.3176 56.0952 75.3868 56.1115 75.4601C56.1277 75.5456 56.1481 75.6311 56.1644 75.7126C56.1807 75.7859 56.197 75.8551 56.2133 75.9244C56.2336 76.0099 56.254 76.0913 56.2744 76.1769C56.2906 76.2502 56.311 76.3194 56.3314 76.3886C56.3517 76.4701 56.3762 76.5556 56.4006 76.6371C56.421 76.7063 56.4413 76.7796 56.4617 76.8488C56.4861 76.9303 56.5106 77.0117 56.535 77.0932C56.5554 77.1624 56.5798 77.2317 56.6042 77.305C56.6327 77.3864 56.6572 77.4678 56.6857 77.5452C56.7101 77.6145 56.7346 77.6837 56.759 77.7529C56.7875 77.8303 56.816 77.9118 56.8445 77.9892C56.869 78.0584 56.8975 78.1276 56.926 78.1969C56.9585 78.2742 56.9871 78.3557 57.0196 78.4331C57.0481 78.5023 57.0766 78.5715 57.1052 78.6367C57.1377 78.7141 57.1703 78.7914 57.207 78.8688C57.2355 78.938 57.2681 79.0032 57.3006 79.0724C57.3373 79.1498 57.3699 79.2231 57.4065 79.3005C57.4391 79.3657 57.4717 79.4349 57.5043 79.5001C57.5409 79.5734 57.5776 79.6507 57.6183 79.7241C57.6509 79.7892 57.6875 79.8584 57.7201 79.9236C57.7608 79.9969 57.7975 80.0702 57.8382 80.1435C57.8749 80.2087 57.9115 80.2738 57.9482 80.339C57.9889 80.4123 58.0296 80.4856 58.0744 80.5548C58.1111 80.62 58.1518 80.6852 58.1884 80.7503C58.2332 80.8236 58.274 80.8929 58.3188 80.9621C58.3595 81.0273 58.4002 81.0884 58.4369 81.1535C58.4817 81.2228 58.5265 81.296 58.5753 81.3653C58.6161 81.4264 58.6568 81.4915 58.7016 81.5526C58.7505 81.6219 58.7953 81.6911 58.8441 81.7603C58.8889 81.8214 58.9296 81.8825 58.9744 81.9436C59.0233 82.0128 59.0722 82.078 59.1211 82.1472C59.1659 82.2083 59.2107 82.2694 59.2595 82.3305C59.3084 82.3956 59.3613 82.4608 59.4143 82.53C59.4632 82.5911 59.5079 82.6481 59.5568 82.7092C59.6098 82.7744 59.6627 82.8395 59.7157 82.9006C59.7645 82.9576 59.8134 83.0187 59.8623 83.0757C59.9152 83.1409 59.9722 83.202 60.0292 83.2631C60.0822 83.3201 60.1311 83.3771 60.184 83.4341C60.241 83.4952 60.298 83.5563 60.355 83.6174C60.408 83.6744 60.4609 83.7314 60.5139 83.7844C60.5709 83.8455 60.632 83.9025 60.689 83.9636C60.7419 84.0206 60.799 84.0735 60.8519 84.1305C60.913 84.1876 60.9741 84.2486 61.0311 84.3057C61.0881 84.3586 61.1451 84.4156 61.2021 84.4686C61.2632 84.5256 61.3243 84.5826 61.3854 84.6355C61.4424 84.6885 61.5035 84.7414 61.5605 84.7944C61.6216 84.8514 61.6868 84.9043 61.7519 84.9573C61.7926 84.9898 61.8334 85.0265 61.87 85.0591C60.1636 85.7921 58.4043 86.4193 56.592 86.9325C56.535 86.9121 56.4821 86.8917 56.425 86.8673H56.4454ZM3.96666 59.5935C4.07254 59.4917 4.18657 59.398 4.29653 59.3003C4.39834 59.2107 4.49608 59.1211 4.5979 59.0356C4.71193 58.9419 4.82596 58.8523 4.93999 58.7586C5.04181 58.6772 5.14769 58.5916 5.25358 58.5102C5.37168 58.4206 5.48979 58.3351 5.61196 58.2495C5.71785 58.1722 5.82373 58.0948 5.93369 58.0215C6.05587 57.94 6.18212 57.8586 6.30429 57.7812C6.41425 57.712 6.52014 57.6387 6.6301 57.5694C6.75635 57.492 6.88667 57.4187 7.01291 57.3454C7.12287 57.2803 7.23283 57.2151 7.34686 57.154C7.47718 57.0848 7.61158 57.0156 7.7419 56.9504C7.85593 56.8934 7.96589 56.8323 8.08399 56.7753C8.21839 56.7101 8.35685 56.6531 8.49125 56.592C8.60528 56.5391 8.71931 56.4861 8.83741 56.4373C8.97588 56.3803 9.11842 56.3273 9.25688 56.2703C9.37499 56.2255 9.48902 56.1766 9.60712 56.1359C9.74966 56.083 9.8922 56.0381 10.0388 55.9893C10.1569 55.9486 10.275 55.9078 10.3931 55.8712C10.5397 55.8264 10.6863 55.7857 10.837 55.7449C10.9551 55.7124 11.0732 55.6757 11.1913 55.6472C11.342 55.6105 11.4968 55.578 11.6475 55.5413C11.7656 55.5128 11.8837 55.4843 12.0018 55.4599C12.1606 55.4273 12.3194 55.4028 12.4783 55.3743C12.5923 55.354 12.7104 55.3295 12.8244 55.3132C12.9914 55.2888 13.1624 55.2684 13.3294 55.2481C13.4394 55.2359 13.5493 55.2196 13.6593 55.2074C13.8466 55.187 14.034 55.1789 14.2213 55.1666C14.315 55.1585 14.4086 55.1503 14.5023 55.1463C14.7833 55.134 15.0684 55.1259 15.3535 55.1259C24.5819 55.1259 32.0916 62.6357 32.0916 71.8641C32.0916 72.0188 32.0916 72.1736 32.0835 72.3283C32.0835 72.3772 32.0794 72.4301 32.0753 72.479C32.0753 72.5849 32.0672 72.6867 32.0631 72.7926C32.0631 72.8537 32.055 72.9148 32.0509 72.9799C32.0468 73.0695 32.0387 73.1632 32.0305 73.2528C32.0265 73.322 32.0183 73.3913 32.0102 73.4605C32.002 73.5419 31.9939 73.6275 31.9857 73.7089C31.9776 73.7822 31.9694 73.8514 31.9613 73.9207C31.9531 74.0021 31.9409 74.0836 31.9328 74.1609C31.9246 74.2343 31.9124 74.3035 31.9002 74.3768C31.888 74.4542 31.8758 74.5356 31.8636 74.613C31.8513 74.6863 31.8391 74.7596 31.8228 74.8288C31.8106 74.9062 31.7943 74.9836 31.7821 75.061C31.7658 75.1343 31.7495 75.2117 31.7373 75.285C31.721 75.3583 31.7088 75.4316 31.6925 75.5049C31.6762 75.5823 31.6559 75.6556 31.6396 75.733C31.6233 75.8063 31.607 75.8755 31.5866 75.9488C31.5663 76.0262 31.5459 76.0995 31.5255 76.1769C31.5052 76.2461 31.4889 76.3194 31.4685 76.3886C31.4482 76.466 31.4237 76.5393 31.4034 76.6167C31.383 76.6859 31.3626 76.7552 31.3423 76.8244C31.3178 76.9018 31.2934 76.9751 31.269 77.0484C31.2486 77.1176 31.2242 77.1869 31.2038 77.252C31.1794 77.3253 31.1509 77.4027 31.1264 77.476C31.102 77.5452 31.0776 77.6104 31.0531 77.6796C31.0246 77.7529 30.9961 77.8303 30.9676 77.9036C30.9432 77.9688 30.9187 78.038 30.8902 78.1032C30.8617 78.1765 30.8291 78.2498 30.7965 78.3231C30.768 78.3883 30.7436 78.4534 30.7151 78.5186C30.6825 78.5919 30.6499 78.6652 30.6174 78.7385C30.5888 78.8037 30.5603 78.8688 30.5278 78.934C30.4952 79.0073 30.4585 79.0765 30.4259 79.1498C30.3934 79.215 30.3649 79.2761 30.3323 79.3412C30.2956 79.4145 30.259 79.4838 30.2223 79.5571C30.1897 79.6182 30.1572 79.6833 30.1246 79.7444C30.0879 79.8136 30.0472 79.8829 30.0105 79.9562C29.978 80.0173 29.9413 80.0784 29.9087 80.1435C29.868 80.2127 29.8273 80.282 29.7866 80.3512C29.7499 80.4123 29.7133 80.4734 29.6766 80.5345C29.6359 80.6037 29.5911 80.6689 29.5504 80.7381C29.5137 80.7992 29.477 80.8603 29.4363 80.9173C29.3915 80.9825 29.3508 81.0517 29.306 81.1169C29.2653 81.1779 29.2286 81.235 29.1879 81.2961C29.1431 81.3612 29.0983 81.4264 29.0494 81.4915C29.0087 81.5485 28.968 81.6096 28.9273 81.6666C28.8784 81.7318 28.8336 81.797 28.7847 81.8621C28.744 81.9192 28.6992 81.9762 28.6544 82.0332C28.6055 82.0983 28.5567 82.1594 28.5078 82.2205C28.463 82.2775 28.4182 82.3345 28.3734 82.3916C28.3245 82.4527 28.2716 82.5137 28.2227 82.5748C28.1779 82.6319 28.129 82.6848 28.0842 82.7418C28.0313 82.8029 27.9784 82.8599 27.9295 82.921C27.8806 82.9739 27.8317 83.031 27.7829 83.0839C27.7299 83.145 27.677 83.202 27.62 83.259C27.5711 83.312 27.5222 83.3649 27.4693 83.4179C27.4163 83.4749 27.3593 83.5319 27.3023 83.5889C27.2494 83.6418 27.2005 83.6948 27.1475 83.7477C27.0905 83.8047 27.0335 83.8577 26.9765 83.9147C26.9236 83.9676 26.8706 84.0165 26.8136 84.0695C26.7566 84.1224 26.6955 84.1753 26.6385 84.2324C26.5815 84.2812 26.5285 84.3342 26.4715 84.383C26.4104 84.436 26.3534 84.4889 26.2923 84.5378C26.2801 84.5459 26.272 84.5582 26.2597 84.5663C15.8055 79.7403 7.55456 70.9274 3.46981 60.0903C3.53904 60.0211 3.61234 59.9519 3.68158 59.8785C3.77932 59.7849 3.87706 59.6872 3.9748 59.5935H3.96666ZM33.2849 86.68C33.0731 86.7696 32.8573 86.851 32.6455 86.9325C30.6133 86.3542 28.6381 85.6374 26.7362 84.7862C26.7769 84.7496 26.8177 84.7129 26.8543 84.6763C26.9154 84.6192 26.9806 84.5622 27.0417 84.5052C27.0946 84.4563 27.1476 84.4034 27.2046 84.3545C27.2657 84.2975 27.3267 84.2405 27.3838 84.1835C27.4367 84.1305 27.4896 84.0776 27.5426 84.0247C27.5996 83.9676 27.6607 83.9066 27.7177 83.8495C27.7707 83.7966 27.8195 83.7436 27.8725 83.6866C27.9295 83.6255 27.9865 83.5685 28.0394 83.5074C28.0883 83.4504 28.1413 83.3975 28.1901 83.3405C28.2431 83.2794 28.3001 83.2183 28.353 83.1572C28.4019 83.1002 28.4508 83.0432 28.4996 82.9862C28.5526 82.9251 28.6055 82.864 28.6544 82.7988C28.7033 82.7418 28.7481 82.6807 28.7969 82.6237C28.8458 82.5626 28.8987 82.4974 28.9476 82.4364C28.9924 82.3753 29.0372 82.3183 29.0861 82.2572C29.135 82.192 29.1838 82.1309 29.2286 82.0658C29.2734 82.0047 29.3182 81.9436 29.3589 81.8825C29.4037 81.8173 29.4526 81.7522 29.4974 81.687C29.5422 81.6259 29.5829 81.5648 29.6237 81.4997C29.6685 81.4345 29.7133 81.3694 29.754 81.3001C29.7947 81.239 29.8354 81.1739 29.8762 81.1128C29.9169 81.0476 29.9617 80.9784 30.0024 80.9092C30.0431 80.844 30.0798 80.7829 30.1205 80.7178C30.1612 80.6485 30.202 80.5793 30.2427 80.5141C30.2793 80.449 30.316 80.3838 30.3526 80.3186C30.3934 80.2494 30.43 80.1802 30.4667 80.111C30.5033 80.0458 30.5359 79.9806 30.5726 79.9155C30.6092 79.8462 30.6459 79.7729 30.6825 79.7037C30.7151 79.6385 30.7517 79.5693 30.7843 79.5041C30.821 79.4349 30.8536 79.3616 30.8902 79.2883C30.9228 79.2191 30.9554 79.1539 30.9839 79.0847C31.0165 79.0114 31.049 78.9421 31.0816 78.8688C31.1101 78.7996 31.1427 78.7344 31.1712 78.6652C31.2038 78.5919 31.2323 78.5186 31.2649 78.4453C31.2934 78.376 31.3219 78.3068 31.3504 78.2376C31.3789 78.1643 31.4074 78.0869 31.4359 78.0136C31.4644 77.9444 31.4889 77.8751 31.5133 77.8059C31.5418 77.7326 31.5663 77.6552 31.5948 77.5819C31.6192 77.5127 31.6436 77.4434 31.6681 77.3701C31.6925 77.2927 31.7169 77.2194 31.7414 77.1421C31.7658 77.0728 31.7862 76.9995 31.8106 76.9303C31.835 76.8529 31.8554 76.7755 31.8798 76.6982C31.9002 76.6289 31.9206 76.5556 31.9409 76.4864C31.9613 76.409 31.9817 76.3275 32.002 76.2502C32.0224 76.1809 32.0387 76.1076 32.059 76.0384C32.0794 75.957 32.0957 75.8796 32.1161 75.7981C32.1323 75.7289 32.1486 75.6556 32.1649 75.5863C32.1812 75.5049 32.1975 75.4234 32.2138 75.342C32.2301 75.2728 32.2423 75.1994 32.2586 75.1302C32.2749 75.0488 32.2871 74.9632 32.3034 74.8818C32.3156 74.8126 32.3278 74.7393 32.34 74.67C32.3523 74.5845 32.3645 74.503 32.3767 74.4175C32.3889 74.3483 32.3971 74.2791 32.4093 74.2098C32.4215 74.1243 32.4296 74.0388 32.4418 73.9492C32.45 73.88 32.4581 73.8107 32.4663 73.7415C32.4744 73.6519 32.4826 73.5664 32.4907 73.4768C32.4989 73.4075 32.5029 73.3424 32.5111 73.2731C32.5192 73.1795 32.5233 73.0858 32.5314 72.9921C32.5355 72.927 32.5396 72.8659 32.5437 72.8048C32.5477 72.6989 32.5518 72.5971 32.5559 72.4912C32.5559 72.4383 32.56 72.3853 32.564 72.3324C32.5681 72.1736 32.5722 72.0188 32.5722 71.86C32.5722 62.3628 24.8466 54.6372 15.3494 54.6372C15.0603 54.6372 14.7711 54.6454 14.482 54.6576C14.3842 54.6616 14.2905 54.6739 14.1928 54.6779C14.0014 54.6901 13.81 54.7024 13.6226 54.7186C13.5086 54.7309 13.3946 54.7472 13.2806 54.7594C13.1095 54.7798 12.9385 54.796 12.7715 54.8245C12.6493 54.8408 12.5312 54.8653 12.409 54.8856C12.2502 54.9141 12.0914 54.9386 11.9325 54.9711C11.8063 54.9956 11.6841 55.0241 11.5619 55.0526C11.4113 55.0852 11.2565 55.1178 11.1058 55.1585C10.9796 55.1911 10.8574 55.2277 10.7311 55.2603C10.5845 55.301 10.4338 55.3418 10.2872 55.3866C10.161 55.4232 10.0388 55.468 9.91664 55.5087C9.7741 55.5576 9.63156 55.6024 9.48902 55.6553C9.36684 55.7001 9.24467 55.749 9.11842 55.7979C8.97995 55.8508 8.83741 55.9038 8.70302 55.9608C8.58084 56.0137 8.45867 56.0667 8.34056 56.1196C8.20617 56.1807 8.0677 56.2418 7.93738 56.3029C7.81521 56.3599 7.6971 56.421 7.579 56.4821C7.44868 56.5472 7.31428 56.6165 7.18803 56.6857C7.06993 56.7509 6.95183 56.816 6.83779 56.8852C6.71155 56.9585 6.58123 57.0318 6.45498 57.1092C6.34095 57.1785 6.22691 57.2518 6.11288 57.3251C5.99071 57.4025 5.86446 57.4839 5.74228 57.5653C5.62825 57.6427 5.51829 57.7201 5.40834 57.8016C5.28616 57.8871 5.16805 57.9726 5.04995 58.0622C4.93999 58.1437 4.83411 58.2292 4.72415 58.3147C4.60605 58.4084 4.49201 58.498 4.37798 58.5957C4.27209 58.6853 4.16621 58.7749 4.0644 58.8645C3.95037 58.9622 3.84041 59.06 3.73045 59.1618C3.62863 59.2555 3.52682 59.3532 3.42501 59.4469C3.38021 59.4917 3.33134 59.5324 3.28654 59.5772C2.43131 57.2192 1.76748 54.7635 1.32358 52.2385C5.6201 43.788 14.1602 38.5425 23.6452 38.5425C25.5756 38.5425 27.4978 38.7624 29.3589 39.1982C29.42 53.1915 34.6003 66.6105 43.959 76.9995C44.0812 77.1991 44.2034 77.3864 44.3215 77.5656C41.0431 81.0558 37.333 84.1183 33.2971 86.6677L33.2849 86.68ZM44.7206 0.753422C54.287 11.1506 59.565 24.6348 59.6098 38.7787C53.5172 40.257 48.2229 43.906 44.6432 49.0904C41.1001 43.9549 35.8587 40.3181 29.8354 38.8154C29.868 24.6592 35.1501 11.1588 44.7246 0.749346L44.7206 0.753422ZM29.8354 39.3244C35.7854 40.8394 40.9453 44.4762 44.3988 49.5995C41.6621 53.7535 40.2123 58.5794 40.2123 63.5764C40.2123 67.6408 41.1815 71.6197 43.0223 75.1995C34.584 65.1484 29.9209 52.4991 29.8354 39.3244ZM44.6635 77.195C44.635 77.1624 44.6065 77.1298 44.578 77.1013C44.5047 76.9832 44.4273 76.8651 44.35 76.7389L44.3255 76.7063C44.2319 76.6045 44.1423 76.4986 44.0527 76.3968C41.7558 72.532 40.5381 68.1092 40.5381 63.5846C40.5381 58.6975 41.9431 53.9734 44.5984 49.8968L44.6432 49.9619L44.688 49.8968C47.3433 53.9693 48.7483 58.6935 48.7483 63.5846C48.7483 68.4757 47.4125 72.9555 44.8916 76.9588C44.8183 77.0402 44.745 77.1217 44.6717 77.2031L44.6635 77.195ZM49.0619 63.5805C49.0619 58.5835 47.6161 53.7535 44.8753 49.6035C48.3655 44.4273 53.5824 40.7743 59.5975 39.2878C59.5202 52.7231 54.7064 65.5638 45.9871 75.7085C48.003 72.0025 49.0619 67.8526 49.0619 63.5846V63.5805ZM62.3465 84.8107C62.2854 84.7618 62.2243 84.7129 62.1673 84.66C62.1062 84.607 62.0452 84.5541 61.9841 84.5011C61.923 84.4482 61.8659 84.3993 61.8089 84.3464C61.7478 84.2934 61.6908 84.2405 61.6298 84.1835C61.5727 84.1305 61.5116 84.0776 61.4546 84.0247C61.3976 83.9717 61.3406 83.9147 61.2836 83.8577C61.2266 83.8047 61.1696 83.7477 61.1166 83.6907C61.0596 83.6337 61.0067 83.5808 60.9537 83.5237C60.8967 83.4667 60.8438 83.4097 60.7867 83.3527C60.7338 83.2957 60.6808 83.2387 60.6279 83.1816C60.575 83.1246 60.5179 83.0635 60.465 83.0065C60.4121 82.9495 60.3632 82.8925 60.3143 82.8314C60.2614 82.7703 60.2084 82.7092 60.1555 82.6481C60.1066 82.5911 60.0577 82.53 60.0089 82.473C59.9559 82.4119 59.9071 82.3508 59.8582 82.2857C59.8093 82.2246 59.7645 82.1676 59.7197 82.1065C59.6709 82.0413 59.622 81.9802 59.5731 81.9151C59.5283 81.854 59.4835 81.7929 59.4387 81.7318C59.3899 81.6667 59.3451 81.6015 59.2962 81.5363C59.2514 81.4753 59.2107 81.4142 59.1699 81.3531C59.1251 81.2879 59.0763 81.2187 59.0315 81.1535C58.9907 81.0924 58.95 81.0273 58.9093 80.9662C58.8645 80.8969 58.8197 80.8318 58.779 80.7626C58.7382 80.7015 58.7016 80.6363 58.6649 80.5752C58.6242 80.506 58.5794 80.4368 58.5387 80.3675C58.502 80.3064 58.4654 80.2413 58.4287 80.1761C58.388 80.1069 58.3473 80.0336 58.3066 79.9643C58.2699 79.8992 58.2373 79.834 58.2007 79.7688C58.164 79.6955 58.1233 79.6263 58.0866 79.553C58.0541 79.4879 58.0215 79.4227 57.9889 79.3575C57.9522 79.2842 57.9156 79.2109 57.8789 79.1376C57.8464 79.0724 57.8179 79.0032 57.7853 78.9381C57.7527 78.8648 57.716 78.7914 57.6835 78.7141C57.655 78.6448 57.6264 78.5797 57.5939 78.5104C57.5613 78.4371 57.5287 78.3597 57.4961 78.2864C57.4676 78.2172 57.4391 78.148 57.4147 78.0787C57.3862 78.0054 57.3536 77.9281 57.3251 77.8548C57.2966 77.7855 57.2721 77.7163 57.2477 77.647C57.2192 77.5697 57.1907 77.4964 57.1662 77.419C57.1418 77.3497 57.1174 77.2765 57.0929 77.2072C57.0685 77.1299 57.04 77.0525 57.0156 76.9792C56.9911 76.9059 56.9708 76.8366 56.9504 76.7633C56.926 76.6859 56.9015 76.6086 56.8812 76.5312C56.8608 76.4579 56.8404 76.3846 56.8201 76.3113C56.7997 76.2339 56.7753 76.1565 56.759 76.0791C56.7386 76.0058 56.7223 75.9284 56.706 75.8551C56.6857 75.7778 56.6694 75.7004 56.649 75.6271C56.6327 75.5497 56.6165 75.4723 56.6002 75.399C56.5839 75.3216 56.5676 75.2483 56.5513 75.171C56.535 75.0936 56.5228 75.0162 56.5065 74.9388C56.4943 74.8614 56.478 74.7841 56.4658 74.7108C56.4535 74.6334 56.4413 74.5519 56.4291 74.4745C56.4169 74.3972 56.4047 74.3239 56.3925 74.2465C56.3802 74.165 56.3721 74.0795 56.3599 73.9981C56.3517 73.9248 56.3395 73.8514 56.3314 73.7781C56.3232 73.6926 56.3151 73.6071 56.3069 73.5216C56.2988 73.4482 56.2906 73.379 56.2866 73.3057C56.2784 73.2161 56.2744 73.1265 56.2662 73.0369C56.2621 72.9677 56.254 72.8985 56.2499 72.8333C56.2458 72.7274 56.2418 72.6215 56.2377 72.5116C56.2377 72.4586 56.2336 72.4057 56.2296 72.3527C56.2255 72.1939 56.2214 72.0351 56.2214 71.8722C56.2214 62.6438 63.7312 55.1341 72.9596 55.1341C73.1102 55.1341 73.265 55.1341 73.4157 55.1422C73.4686 55.1422 73.5216 55.1463 73.5745 55.1503C73.6722 55.1503 73.7741 55.1585 73.8718 55.1626C73.9329 55.1626 73.994 55.1707 74.051 55.1748C74.1406 55.1788 74.2302 55.187 74.3239 55.1951C74.389 55.1992 74.4501 55.2074 74.5153 55.2114C74.6008 55.2196 74.6904 55.2277 74.7759 55.2359C74.8411 55.244 74.9062 55.2522 74.9714 55.2603C75.0528 55.2684 75.1384 55.2807 75.2198 55.2929C75.289 55.301 75.3542 55.3133 75.4234 55.3214C75.5049 55.3336 75.5863 55.3458 75.6637 55.358C75.733 55.3703 75.8022 55.3825 75.8673 55.3947C75.9447 55.4069 76.0262 55.4232 76.1036 55.4354C76.1728 55.4476 76.242 55.4639 76.3113 55.4761C76.3886 55.4924 76.466 55.5087 76.5434 55.525C76.6126 55.5413 76.6819 55.5576 76.7511 55.5739C76.8285 55.5902 76.9018 55.6105 76.9792 55.6268C77.0484 55.6431 77.1176 55.6635 77.1868 55.6798C77.2602 55.7001 77.3375 55.7164 77.4108 55.7368C77.4801 55.7571 77.5493 55.7775 77.6185 55.7979C77.6918 55.8182 77.7652 55.8386 77.8425 55.863C77.9118 55.8834 77.9769 55.9078 78.0462 55.9282C78.1195 55.9526 78.1928 55.973 78.2661 55.9974C78.3353 56.0219 78.4005 56.0463 78.4697 56.0667C78.543 56.0911 78.6163 56.1155 78.6855 56.144C78.7548 56.1685 78.8199 56.1929 78.8892 56.2214C78.9625 56.2499 79.0317 56.2744 79.1009 56.3029C79.1661 56.3314 79.2353 56.3558 79.3005 56.3843C79.3697 56.4128 79.443 56.4413 79.5123 56.4698C79.5774 56.4983 79.6467 56.5269 79.7118 56.5554C79.7811 56.5879 79.8503 56.6164 79.9195 56.649C79.9847 56.6775 80.0498 56.7101 80.115 56.7427C80.1842 56.7753 80.2535 56.8079 80.3186 56.8405C80.3838 56.873 80.449 56.9056 80.5141 56.9382C80.5834 56.9708 80.6485 57.0074 80.7177 57.04C80.7829 57.0726 80.8481 57.1092 80.9132 57.1459C80.9784 57.1825 81.0476 57.2192 81.1128 57.2559C81.1779 57.2925 81.239 57.3291 81.3042 57.3658C81.3694 57.4025 81.4345 57.4391 81.4997 57.4798C81.5648 57.5165 81.6259 57.5572 81.687 57.5939C81.7522 57.6346 81.8173 57.6713 81.8784 57.712C81.9395 57.7527 82.0006 57.7934 82.0617 57.8301C82.1268 57.8708 82.1879 57.9115 82.249 57.9522C82.3101 57.993 82.3712 58.0337 82.4323 58.0785C82.4934 58.1233 82.5585 58.164 82.6196 58.2088C82.6807 58.2495 82.7377 58.2943 82.7988 58.3391C82.8599 58.3839 82.921 58.4287 82.9821 58.4735C83.0432 58.5183 83.1002 58.5631 83.1572 58.6079C83.2183 58.6527 83.2753 58.7016 83.3364 58.7464C83.3934 58.7912 83.4504 58.8401 83.5115 58.8849C83.5685 58.9337 83.6296 58.9785 83.6866 59.0274C83.7436 59.0763 83.8007 59.1251 83.8577 59.174C83.9147 59.2229 83.9717 59.2717 84.0287 59.3206C84.0857 59.3695 84.1428 59.4224 84.1957 59.4713C84.2527 59.5202 84.3057 59.5731 84.3627 59.622C84.4197 59.6749 84.4726 59.7279 84.5256 59.7767C84.5785 59.8297 84.6355 59.8786 84.6885 59.9315C84.7414 59.9844 84.7944 60.0374 84.8514 60.0944C84.9043 60.1473 84.9573 60.2003 85.0102 60.2532C85.0631 60.3062 85.1161 60.3632 85.169 60.4202C85.222 60.4731 85.2708 60.5302 85.3238 60.5831C85.3767 60.6401 85.4256 60.6971 85.4785 60.7542C85.4908 60.7664 85.503 60.7786 85.5111 60.7908C81.2553 71.5138 72.8985 80.1761 62.3832 84.8392C62.3709 84.831 62.3587 84.8188 62.3465 84.8107ZM44.1586 0.651609C34.6573 11.0936 29.4037 24.5778 29.3467 38.7136C27.4815 38.2859 25.5633 38.066 23.6289 38.066C18.8029 38.066 14.1073 39.4181 10.0429 41.9798C6.31651 44.3296 3.26618 47.5958 1.17697 51.4565C0.826728 49.2248 0.643462 46.9401 0.643462 44.6147C0.643462 20.5215 20.1224 0.895957 44.1545 0.647532L44.1586 0.651609ZM33.4233 87.1442C33.4437 87.1361 33.4681 87.1279 33.4885 87.1198L33.5251 87.0994C37.6303 84.5093 41.3933 81.3979 44.7206 77.8466C48.0519 81.4019 51.8231 84.5174 55.9363 87.1116C52.324 88.0728 48.5325 88.59 44.6228 88.59C40.7132 88.59 37.0031 88.085 33.4274 87.1442H33.4233Z" fill="#B4BDC7"/>
</svg>
