<svg width="308" height="109" viewBox="0 0 308 109" fill="none" xmlns="http://www.w3.org/2000/svg">
<path d="M38.6436 62.923C36.6014 64.3064 34.3643 65 31.9243 65C28.6113 65 25.7855 63.8069 23.447 61.4287C21.149 59.0902 20 56.2839 20 53.0178C20 51.3927 20.3045 49.8548 20.9135 48.4002C21.5225 46.9455 22.367 45.6692 23.447 44.5713C25.7855 42.1891 28.6072 41 31.9243 41C34.3725 41 36.6014 41.6817 38.6071 43.0413C40.6127 44.4048 42.0662 46.1924 42.9675 48.416H40.2595C38.9643 46.1012 37.0358 44.5713 34.474 43.8301C33.6417 43.5883 32.6754 43.4694 31.571 43.4694C30.4667 43.4694 29.3421 43.727 28.1931 44.2423C27.0441 44.7576 26.0413 45.4512 25.1846 46.3192C23.3658 48.1663 22.4604 50.3979 22.4604 53.0139C22.4604 55.6299 23.3698 57.8297 25.1846 59.6728C27.0523 61.5714 29.2974 62.5227 31.9202 62.5227C33.7026 62.5227 35.3387 62.0629 36.8288 61.1473C38.3188 60.2317 39.4718 59.0188 40.292 57.5087H43C42.1149 59.7442 40.6574 61.5476 38.6395 62.9191L38.6436 62.923Z" fill="#B4BDC7"/>
<path d="M57.0138 46.1418L49.4155 66L44 41.3438H46.4541L50.033 57.9142L57.0177 40L63.967 57.9142L67.5813 41.3438H70L64.6159 66L57.0177 46.1418H57.0138Z" fill="#B4BDC7"/>
<path d="M86.4517 64L84.0077 57.8914H74L71.5445 64H69L79.0155 40L89 64H86.4555H86.4517ZM83.1493 55.746L79.0155 45.4112L74.8623 55.746H83.1493Z" fill="#B4BDC7"/>
<path d="M54.5 109C24.45 109 0 84.55 0 54.5C0 24.45 24.45 0 54.5 0C84.55 0 109 24.45 109 54.5C109 84.55 84.55 109 54.5 109ZM54.5 3.04741C26.1269 3.04741 3.04741 26.1269 3.04741 54.5C3.04741 82.8731 26.1269 105.953 54.5 105.953C82.8731 105.953 105.953 82.8731 105.953 54.5C105.953 26.1269 82.8731 3.04741 54.5 3.04741Z" fill="#B4BDC7"/>
<path d="M140 29.7885L138.93 31.2216C137.049 29.5122 134.918 28.6575 132.52 28.6575C130.96 28.6575 129.498 29.0288 128.134 29.7626C126.77 30.505 125.709 31.4978 124.942 32.7496C124.175 34.0014 123.792 35.3482 123.792 36.7813C123.792 38.0676 124.086 39.2072 124.675 40.2C125.263 41.1928 126.119 41.9698 127.233 42.5396C128.348 43.1007 129.623 43.3856 131.058 43.3856C133.251 43.3856 135.284 42.7122 137.183 41.3741L138.172 42.7381C136.773 43.6273 135.56 44.223 134.553 44.5338C133.545 44.8446 132.377 45 131.049 45C128.606 45 126.609 44.4043 125.067 43.213C123.025 41.6158 122 39.4921 122 36.8417C122 34.1914 123.025 31.7741 125.067 29.8662C127.108 27.9583 129.649 27 132.689 27C134.08 27 135.337 27.2072 136.478 27.6388C137.62 28.0619 138.788 28.7784 139.991 29.7971L140 29.7885Z" fill="#B4BDC7"/>
<path d="M149.77 32C150.922 32 151.982 32.2526 152.94 32.7578C153.899 33.2629 154.654 33.9618 155.189 34.8627C155.733 35.7552 156 36.774 156 37.9106C156 39.2072 155.659 40.4113 154.968 41.5142C154.276 42.6256 153.355 43.4844 152.194 44.0907C151.032 44.6969 149.714 45 148.249 45C146.433 45 144.94 44.4527 143.76 43.3666C142.59 42.2804 142 40.8912 142 39.2157C142 37.8938 142.341 36.6813 143.032 35.5699C143.724 34.4585 144.664 33.5829 145.862 32.9514C147.06 32.3199 148.359 32 149.76 32H149.77ZM149.724 33.5155C148.645 33.5155 147.631 33.7597 146.682 34.2565C145.733 34.7532 145.005 35.4268 144.488 36.2856C143.972 37.1444 143.724 38.0959 143.724 39.1315C143.724 40.4365 144.166 41.489 145.041 42.3057C145.917 43.1224 147.06 43.5266 148.452 43.5266C149.539 43.5266 150.525 43.2908 151.41 42.8109C152.295 42.3394 152.995 41.6574 153.521 40.7649C154.046 39.8724 154.304 38.9126 154.304 37.8938C154.304 37.035 154.111 36.2772 153.724 35.612C153.336 34.9469 152.783 34.4333 152.065 34.0712C151.355 33.7008 150.571 33.5155 149.724 33.5155Z" fill="#B4BDC7"/>
<path d="M160.397 27H162L159.612 45H158L160.397 27Z" fill="#B4BDC7"/>
<path d="M176.155 44.6887H174.402L174.67 42.8291C173.101 44.2764 171.312 45 169.301 45C167.465 45 165.961 44.4615 164.771 43.3761C163.59 42.2906 163 40.9023 163 39.1942C163 37.2253 163.775 35.534 165.315 34.1204C166.856 32.7068 168.673 32 170.758 32C171.884 32 172.88 32.2188 173.729 32.6479C174.577 33.077 175.297 33.7502 175.878 34.6673L176.192 32.3197H178L176.164 44.6718L176.155 44.6887ZM169.485 43.5528C170.601 43.5528 171.616 43.3171 172.539 42.8291C173.452 42.3495 174.181 41.6595 174.725 40.7508C175.26 39.8505 175.528 38.866 175.528 37.8058C175.528 36.5269 175.085 35.4919 174.199 34.6841C173.314 33.8848 172.17 33.4809 170.749 33.4809C169.089 33.4809 167.668 34.0278 166.478 35.1301C165.297 36.2239 164.707 37.5702 164.707 39.1689C164.707 40.4816 165.149 41.5333 166.035 42.3411C166.921 43.1405 168.074 43.5443 169.485 43.5443V43.5528Z" fill="#B4BDC7"/>
<path d="M189 33.7081L187.953 34.9955C187.11 34.0026 186.114 33.5062 184.965 33.5062C184.305 33.5062 183.746 33.6828 183.278 34.0447C182.811 34.3981 182.577 34.7935 182.577 35.2226C182.577 35.5508 182.72 35.8705 183.004 36.1735C183.278 36.4764 183.909 36.8887 184.884 37.4103C186.307 38.176 187.252 38.8408 187.709 39.4129C188.157 39.9851 188.38 40.6498 188.38 41.3987C188.38 42.4337 187.943 43.2919 187.069 43.9735C186.195 44.655 185.057 45 183.665 45C181.815 45 180.26 44.3184 179 42.9637L180.169 41.8447C181.276 42.9553 182.476 43.5107 183.776 43.5107C184.518 43.5107 185.159 43.3003 185.707 42.8628C186.256 42.4337 186.53 41.9288 186.53 41.365C186.53 40.9023 186.327 40.4647 185.911 40.0356C185.646 39.7579 184.935 39.2951 183.766 38.6472C182.516 37.932 181.693 37.343 181.297 36.8718C180.9 36.4091 180.707 35.8874 180.707 35.3068C180.707 34.3896 181.124 33.6155 181.957 32.9676C182.791 32.3197 183.848 32 185.118 32C185.87 32 186.551 32.1262 187.15 32.3787C187.76 32.6311 188.37 33.0686 189 33.7081Z" fill="#B4BDC7"/>
<path d="M198.009 28H199.761L202.257 40.6322L209.237 28H209.573L212.731 40.6322L219.103 28H221L212.404 45H212.069L208.892 32.1965L201.703 45H201.367L198 28H198.009Z" fill="#B4BDC7"/>
<path d="M222.598 32.2471H224.028L222.486 45H221L222.598 32.2471ZM223.787 27C224.116 27 224.406 27.1303 224.639 27.3822C224.88 27.6429 225 27.9556 225 28.3118C225 28.6679 224.88 28.9894 224.639 29.2413C224.398 29.4932 224.116 29.6235 223.787 29.6235C223.458 29.6235 223.161 29.5019 222.928 29.2413C222.695 28.9894 222.574 28.6766 222.574 28.3118C222.574 27.9469 222.695 27.6429 222.928 27.3822C223.161 27.1216 223.45 27 223.787 27Z" fill="#B4BDC7"/>
<path d="M228.397 27H230L227.612 45H226L228.397 27Z" fill="#B4BDC7"/>
<path d="M244.916 38.8115H232.74C232.712 40.2766 233.14 41.4385 234.005 42.2805C234.879 43.1224 236.033 43.5434 237.484 43.5434C238.442 43.5434 239.335 43.3666 240.153 43.013C240.972 42.6593 241.651 42.1542 242.191 41.5143L243.493 42.4741C242.833 43.2403 241.967 43.8549 240.898 44.3096C239.828 44.7727 238.674 45 237.437 45C235.298 45 233.688 44.4022 232.609 43.1982C231.53 42.0026 231 40.647 231 39.1483C231 37.9191 231.363 36.7403 232.088 35.6036C232.814 34.467 233.781 33.5829 234.991 32.9514C236.2 32.32 237.521 32 238.935 32C240.684 32 242.135 32.5389 243.279 33.6082C244.423 34.6775 245 36.0499 245 37.7085C245 38.0117 244.972 38.3821 244.916 38.82V38.8115ZM243.307 37.4223C243.26 36.2604 242.814 35.3174 241.986 34.6017C241.158 33.886 240.116 33.5156 238.86 33.5156C237.493 33.5156 236.293 33.8608 235.251 34.5596C234.209 35.2584 233.465 36.2098 233.037 37.4223H243.307Z" fill="#B4BDC7"/>
<path d="M248.786 32.328H250.48L250.224 34.1235C250.746 33.4588 251.414 32.9409 252.22 32.5697C253.026 32.1985 253.841 32 254.666 32C255.682 32 256.58 32.2849 257.367 32.8546C257.972 33.3034 258.42 33.9595 258.723 34.84C259.336 33.9336 260.087 33.243 260.985 32.7424C261.882 32.2503 262.789 32 263.723 32C264.969 32 265.994 32.3798 266.8 33.1308C267.606 33.8818 268 34.8572 268 36.0485C268 36.5923 267.945 37.257 267.835 38.0425L266.883 45H265.188L266.058 38.9143C266.242 37.6454 266.333 36.7131 266.333 36.1175C266.333 35.3752 266.077 34.7709 265.564 34.2875C265.051 33.8041 264.373 33.5624 263.531 33.5624C262.642 33.5624 261.809 33.8214 261.049 34.3479C260.28 34.8745 259.739 35.4874 259.419 36.2038C259.098 36.9203 258.86 37.8181 258.695 38.9057L257.807 44.9914H256.094L257.092 38.0425C257.202 37.3001 257.248 36.6959 257.248 36.2211C257.248 35.4097 256.992 34.7536 256.479 34.2616C255.966 33.7696 255.288 33.5279 254.464 33.5279C253.768 33.5279 253.099 33.6833 252.458 33.9854C251.817 34.2961 251.295 34.6932 250.892 35.1853C250.489 35.6859 250.187 36.2988 249.986 37.0325C249.784 37.7663 249.647 38.4223 249.555 39.0179L248.713 44.9827H247L248.822 32.3107L248.786 32.328Z" fill="#B4BDC7"/>
<path d="M272.777 32.328H274.473L274.216 34.1235C274.738 33.4588 275.407 32.9409 276.213 32.5697C277.02 32.1985 277.835 32 278.66 32C279.677 32 280.575 32.2849 281.363 32.8546C281.967 33.3034 282.416 33.9595 282.719 34.84C283.332 33.9336 284.084 33.243 284.982 32.7424C285.88 32.2503 286.787 32 287.721 32C288.967 32 289.993 32.3798 290.8 33.1308C291.606 33.8818 292 34.8572 292 36.0485C292 36.5923 291.945 37.257 291.844 38.0425L290.891 45H289.196L290.067 38.9143C290.25 37.6454 290.342 36.7131 290.342 36.1175C290.342 35.3752 290.085 34.7709 289.572 34.2875C289.059 33.8041 288.381 33.5624 287.538 33.5624C286.649 33.5624 285.815 33.8214 285.055 34.3479C284.285 34.8745 283.745 35.4874 283.424 36.2038C283.103 36.9203 282.865 37.8181 282.7 38.9057L281.812 44.9914H280.098L281.097 38.0425C281.207 37.3001 281.253 36.6959 281.253 36.2211C281.253 35.4097 280.996 34.7536 280.483 34.2616C279.97 33.7696 279.292 33.5279 278.467 33.5279C277.771 33.5279 277.102 33.6833 276.461 33.9854C275.819 34.2961 275.297 34.6932 274.894 35.1853C274.491 35.6859 274.188 36.2988 273.987 37.0325C273.785 37.7663 273.648 38.4223 273.556 39.0179L272.713 44.9827H271L272.823 32.3107L272.777 32.328Z" fill="#B4BDC7"/>
<path d="M307.907 38.8115H295.73C295.702 40.2766 296.13 41.4385 296.995 42.2805C297.87 43.1224 299.023 43.5434 300.474 43.5434C301.433 43.5434 302.326 43.3666 303.144 43.013C303.963 42.6593 304.642 42.1542 305.181 41.5143L306.493 42.4741C305.833 43.2403 304.967 43.8549 303.898 44.3096C302.837 44.7727 301.684 45 300.437 45C298.298 45 296.688 44.4022 295.609 43.1982C294.53 42.0026 294 40.647 294 39.1483C294 37.9191 294.363 36.7403 295.088 35.6036C295.814 34.467 296.781 33.5829 297.991 32.9514C299.2 32.32 300.521 32 301.935 32C303.684 32 305.135 32.5389 306.279 33.6082C307.423 34.6775 308 36.0499 308 37.7085C308 38.0117 307.972 38.3821 307.916 38.82L307.907 38.8115ZM306.298 37.4223C306.251 36.2604 305.805 35.3174 304.977 34.6017C304.149 33.886 303.107 33.5156 301.851 33.5156C300.484 33.5156 299.284 33.8608 298.242 34.5596C297.2 35.2584 296.465 36.2098 296.028 37.4223H306.298Z" fill="#B4BDC7"/>
<path d="M137.016 71.7359L138.21 73.1191C137.228 73.8885 136.371 74.5206 135.619 75.0153C136.467 76.0229 137.594 77.1954 139 78.542H136.399L134.762 76.9115C134.541 76.6733 134.3 76.3985 134.04 76.087C131.324 78.029 128.896 79 126.758 79C125.747 79 124.918 78.8259 124.254 78.4779C123.589 78.1298 123.05 77.6168 122.626 76.9389C122.202 76.2611 122 75.5374 122 74.7771C122 74.1176 122.125 73.5313 122.376 73.0092C122.713 72.3221 123.204 71.6901 123.83 71.113C124.456 70.5359 125.718 69.6565 127.596 68.4656C126.488 66.9267 125.939 65.6443 125.939 64.6092C125.939 63.574 126.363 62.7404 127.201 62.0443C128.039 61.3481 129.108 61 130.408 61C131.535 61 132.46 61.3023 133.182 61.9069C133.905 62.5114 134.261 63.2168 134.261 64.0321C134.261 64.774 134.001 65.516 133.481 66.2672C132.961 67.0092 131.911 67.916 130.341 68.9786C131.208 70.0687 132.171 71.1954 133.24 72.3588L134.357 73.6137L135.812 72.6061L137.006 71.7175L137.016 71.7359ZM128.723 69.9679C126.748 71.0947 125.419 72.0656 124.726 72.8626C124.206 73.458 123.946 74.0901 123.946 74.7679C123.946 75.5557 124.235 76.1695 124.803 76.6183C125.371 77.0672 126.007 77.2962 126.7 77.2962C127.394 77.2962 128.222 77.0855 129.272 76.655C130.052 76.3344 131.237 75.7023 132.816 74.7496C132.527 74.4657 132.248 74.1634 131.959 73.8336C130.466 72.084 129.388 70.8015 128.723 69.9771V69.9679ZM129.253 67.5313C130.534 66.6702 131.362 65.9924 131.738 65.5069C132.113 65.0214 132.296 64.5817 132.296 64.1695C132.296 63.7939 132.113 63.4733 131.738 63.1985C131.372 62.9145 130.871 62.7771 130.235 62.7771C129.522 62.7771 128.954 62.9511 128.53 63.3084C128.107 63.6656 127.895 64.0779 127.895 64.5542C127.895 65.2229 128.347 66.2214 129.243 67.5313H129.253Z" fill="#B4BDC7"/>
<path d="M157.261 60L163 79H161.239L159.367 72.7879H152.109L148.907 79H147L156.864 60H157.261ZM156.717 63.9819L153.067 70.9884H158.823L156.709 63.9819H156.717Z" fill="#B4BDC7"/>
<path d="M173.99 66.8395L172.953 68.2259C172.11 67.1566 171.114 66.622 169.965 66.622C169.305 66.622 168.746 66.8123 168.278 67.2019C167.811 67.5825 167.577 68.0084 167.577 68.4705C167.577 68.8239 167.72 69.1683 168.004 69.4945C168.278 69.8207 168.909 70.2647 169.884 70.8265C171.307 71.6511 172.252 72.367 172.709 72.9832C173.157 73.5993 173.38 74.3152 173.38 75.1217C173.38 76.2362 172.943 77.1605 172.069 77.8945C171.195 78.6285 170.057 79 168.665 79C166.815 79 165.26 78.266 164 76.8071L165.159 75.6019C166.266 76.7981 167.465 77.3961 168.766 77.3961C169.508 77.3961 170.148 77.1696 170.707 76.6984C171.256 76.2362 171.53 75.6926 171.53 75.0854C171.53 74.5871 171.327 74.1158 170.911 73.6537C170.646 73.3547 169.935 72.8563 168.776 72.1586C167.526 71.3883 166.703 70.754 166.307 70.2466C165.911 69.7482 165.717 69.1864 165.717 68.5612C165.717 67.5735 166.134 66.7398 166.967 66.0421C167.801 65.3443 168.848 65 170.118 65C170.87 65 171.551 65.1359 172.15 65.4078C172.75 65.6796 173.38 66.1508 174 66.8395H173.99Z" fill="#B4BDC7"/>
<path d="M183 66.8395L182.058 68.2259C181.299 67.1566 180.402 66.622 179.369 66.622C178.774 66.622 178.271 66.8123 177.851 67.2019C177.43 67.5825 177.22 68.0084 177.22 68.4705C177.22 68.8239 177.348 69.1683 177.604 69.4945C177.851 69.8207 178.418 70.2647 179.296 70.8265C180.576 71.6511 181.427 72.367 181.838 72.9832C182.241 73.5993 182.442 74.3152 182.442 75.1217C182.442 76.2362 182.049 77.1605 181.262 77.8945C180.476 78.6285 179.46 79 178.198 79C176.534 79 175.134 78.266 174 76.8071L175.052 75.6019C176.049 76.7981 177.128 77.3961 178.299 77.3961C178.966 77.3961 179.543 77.1696 180.037 76.6984C180.53 76.2362 180.777 75.6926 180.777 75.0854C180.777 74.5871 180.595 74.1158 180.22 73.6537C179.982 73.3547 179.341 72.8563 178.29 72.1586C177.165 71.3883 176.424 70.754 176.067 70.2466C175.71 69.7482 175.537 69.1864 175.537 68.5612C175.537 67.5735 175.912 66.7398 176.662 66.0421C177.412 65.3443 178.363 65 179.506 65C180.183 65 180.796 65.1359 181.335 65.4078C181.875 65.6796 182.433 66.1508 183 66.8395Z" fill="#B4BDC7"/>
<path d="M193.211 65C194.281 65 195.266 65.272 196.157 65.8161C197.047 66.3601 197.75 67.1127 198.246 68.0829C198.752 69.044 199 70.1412 199 71.3653C199 72.7616 198.675 74.0583 198.041 75.2461C197.399 76.443 196.542 77.3679 195.463 78.0207C194.384 78.6736 193.168 79 191.806 79C190.119 79 188.732 78.4106 187.636 77.2409C186.548 76.0712 186 74.5751 186 72.7707C186 71.3471 186.325 70.0414 186.959 68.8446C187.593 67.6477 188.475 66.7046 189.588 66.0246C190.702 65.3445 191.909 65 193.211 65ZM193.168 66.6321C192.166 66.6321 191.224 66.8951 190.342 67.43C189.46 67.965 188.783 68.6904 188.304 69.6153C187.824 70.5402 187.593 71.5648 187.593 72.6801C187.593 74.0855 187.995 75.2189 188.818 76.0984C189.64 76.978 190.693 77.4132 191.986 77.4132C192.997 77.4132 193.913 77.1593 194.735 76.6425C195.557 76.1347 196.208 75.4003 196.696 74.4391C197.184 73.478 197.424 72.4443 197.424 71.3471C197.424 70.4223 197.244 69.6062 196.876 68.8899C196.508 68.1736 196.003 67.6205 195.335 67.2306C194.675 66.8316 193.947 66.6321 193.159 66.6321H193.168Z" fill="#B4BDC7"/>
<path d="M216 68.228L214.587 69.044C213.594 67.4482 212.081 66.6412 210.039 66.6412C208.863 66.6412 207.788 66.9042 206.813 67.421C205.837 67.9378 205.072 68.6723 204.525 69.5972C203.978 70.5311 203.695 71.5194 203.695 72.5803C203.695 73.5142 203.905 74.3575 204.306 75.101C204.716 75.8445 205.29 76.4158 206.029 76.8148C206.767 77.2137 207.642 77.4132 208.654 77.4132C209.665 77.4132 210.668 77.2137 211.607 76.8057C212.546 76.3977 213.275 75.8718 213.803 75.228L215.216 76.2163C214.332 77.1775 213.366 77.8847 212.336 78.329C211.297 78.7733 210.094 79 208.727 79C206.612 79 204.962 78.4288 203.777 77.2772C202.592 76.1347 202 74.6023 202 72.6982C202 70.5764 202.775 68.7629 204.333 67.2578C205.883 65.7526 207.788 65 210.048 65C211.397 65 212.591 65.2811 213.63 65.8523C214.669 66.4236 215.453 67.2034 216 68.2189V68.228Z" fill="#B4BDC7"/>
<path d="M218.598 65.5386H220.028L218.486 79H217L218.598 65.5386ZM219.787 60C220.116 60 220.406 60.1376 220.639 60.4035C220.871 60.6694 221 61.0087 221 61.3846C221 61.7606 220.88 62.0999 220.639 62.3658C220.398 62.6317 220.116 62.7693 219.787 62.7693C219.458 62.7693 219.161 62.6409 218.928 62.3658C218.695 62.0907 218.574 61.7698 218.574 61.3846C218.574 60.9995 218.695 60.6786 218.928 60.4035C219.161 60.1284 219.45 60 219.787 60Z" fill="#B4BDC7"/>
<path d="M236.9 71.9681H223.854C223.824 73.6328 224.282 74.9531 225.209 75.9098C226.146 76.8665 227.382 77.3449 228.937 77.3449C229.963 77.3449 230.92 77.144 231.797 76.7422C232.674 76.3403 233.402 75.7663 233.98 75.0392L235.385 76.1298C234.678 77.0005 233.751 77.6989 232.605 78.2155C231.468 78.7417 230.233 79 228.897 79C226.605 79 224.88 78.3207 223.724 76.9526C222.568 75.5941 222 74.0538 222 72.3508C222 70.954 222.389 69.6146 223.166 68.323C223.944 67.0314 224.98 66.0269 226.276 65.3093C227.571 64.5918 228.987 64.2282 230.502 64.2282C232.375 64.2282 233.93 64.8405 235.156 66.0556C236.382 67.2706 237 68.8301 237 70.7148C237 71.0592 236.97 71.4802 236.91 71.9777L236.9 71.9681ZM235.176 70.3895C235.126 69.0692 234.648 67.9977 233.761 67.1845C232.874 66.3713 231.757 65.9503 230.412 65.9503C228.947 65.9503 227.661 66.3426 226.545 67.1367C225.429 67.9307 224.641 69.0118 224.173 70.3895H235.176ZM232.824 58H235.714L231.15 61.98H229.296L232.824 58Z" fill="#B4BDC7"/>
<path d="M246.991 66.8395L246.058 68.2259C245.299 67.1566 244.402 66.622 243.369 66.622C242.774 66.622 242.271 66.8123 241.851 67.2019C241.43 67.5825 241.22 68.0084 241.22 68.4705C241.22 68.8239 241.348 69.1683 241.604 69.4945C241.851 69.8207 242.418 70.2647 243.296 70.8265C244.576 71.6511 245.427 72.367 245.838 72.9832C246.241 73.5993 246.442 74.3152 246.442 75.1217C246.442 76.2362 246.049 77.1605 245.262 77.8945C244.476 78.6285 243.451 79 242.198 79C240.534 79 239.134 78.266 238 76.8071L239.043 75.6019C240.04 76.7981 241.119 77.3961 242.29 77.3961C242.957 77.3961 243.534 77.1696 244.037 76.6984C244.53 76.2362 244.777 75.6926 244.777 75.0854C244.777 74.5871 244.595 74.1158 244.22 73.6537C243.982 73.3547 243.341 72.8563 242.299 72.1586C241.174 71.3883 240.433 70.754 240.076 70.2466C239.72 69.7482 239.546 69.1864 239.546 68.5612C239.546 67.5735 239.921 66.7398 240.671 66.0421C241.421 65.3443 242.363 65 243.506 65C244.183 65 244.796 65.1359 245.335 65.4078C245.875 65.6796 246.442 66.1508 247 66.8395H246.991Z" fill="#B4BDC7"/>
</svg>
