<svg width="271" height="106" viewBox="0 0 271 106" fill="none" xmlns="http://www.w3.org/2000/svg">
<path d="M53.0556 105.692C38.8828 105.692 25.5613 100.194 15.5384 90.2123C5.51838 80.2307 0 66.9594 0 52.8458C0 38.7321 5.51838 25.4608 15.5384 15.4792C25.5583 5.49768 38.8828 0 53.0556 0C67.2284 0 80.5499 5.49768 90.5729 15.4792C100.593 25.4608 106.111 38.7321 106.111 52.8458C106.111 66.9594 100.593 80.2307 90.5729 90.2123C80.5529 100.194 67.2284 105.692 53.0556 105.692ZM53.0556 3.43162C25.7002 3.43162 3.44344 25.5997 3.44344 52.8487C3.44344 80.0977 25.7002 102.266 53.0556 102.266C80.411 102.266 102.668 80.0977 102.668 52.8487C102.668 25.5997 80.411 3.43162 53.0556 3.43162Z" fill="#B4BDC7"/>
<path d="M73.985 19.3838H37.52C35.6785 19.3838 34.18 20.8764 34.18 22.7119V35.93C30.1779 38.4336 27.701 41.5992 26.2941 43.8987L26.2468 43.9785C24.7896 46.488 23.6191 50.0496 23.1935 53.2803C22.6141 57.6459 23.3708 61.1396 25.3807 63.383C27.299 65.5289 29.968 66.1643 34.1829 66.9062V84.1057C34.1829 85.9412 35.6815 87.4339 37.5229 87.4339H51.5302C53.2593 87.4339 54.7254 86.089 54.8613 84.3717C55.0889 81.4662 54.9234 75.8296 51.2908 70.6985C50.4425 69.5014 49.4671 68.4078 48.3675 67.4294C48.672 67.2284 48.9587 67.0008 49.2277 66.7555C52.6593 63.5544 51.3262 57.971 51.0218 56.8804C49.9577 53.0556 47.4986 51.1078 45.1192 49.225C43.0827 47.6141 40.9782 45.95 39.4708 42.8849C38.7407 41.4041 38.2441 39.7962 37.9899 38.0907C42.0629 36.1872 47.135 35.9005 47.5665 35.8768H74.1298C76.3407 35.8768 78.4216 35.0197 79.9881 33.462C81.6167 31.8363 82.4857 29.652 82.4089 27.3466C82.264 22.9602 78.3979 19.3779 73.9909 19.3779L73.985 19.3838ZM34.18 63.117C30.7897 62.4992 29.1966 62.044 28.1798 60.9031C25.4339 57.8321 27.1217 49.9462 29.4922 45.8584L29.5129 45.8259C30.4439 44.3007 31.9425 42.3204 34.1829 40.5144V63.1199L34.18 63.117ZM51.1489 83.7067H37.9279V67.5683C39.5713 67.8609 41.4541 68.2186 43.5881 68.6856C43.7241 68.7181 43.8453 68.727 43.931 68.7388C45.6364 69.859 47.0788 71.2453 48.2227 72.8562C51.0277 76.8228 51.2849 81.2179 51.1459 83.7067H51.1489ZM42.7841 52.1571C44.9537 53.8744 46.665 55.231 47.4069 57.8883C47.4572 58.0656 48.5892 62.2391 46.6591 64.0362C45.9291 64.719 44.8827 64.9259 44.0788 64.9702C41.7171 64.4589 39.6777 64.0805 37.9279 63.7761V47.5077C39.4708 49.5353 41.1999 50.9068 42.7841 52.1571ZM77.7004 30.4176C76.8166 31.5319 75.519 32.1556 74.1269 32.1556H47.4513C47.2119 32.1674 42.4738 32.3654 37.9308 34.0768V23.1198H74.1298C76.8343 23.1198 78.992 25.4903 78.6226 28.254C78.5161 29.0402 78.1999 29.7939 77.7033 30.4176H77.7004Z" fill="#B4BDC7"/>
<path d="M76.8172 43.2544C74.7127 45.684 72.3363 47.5314 69.753 48.7491C67.9796 49.5856 66.3598 50.0201 64.7962 50.4428C62.2395 51.1315 59.8217 51.7817 57.6906 54.037C56.4433 55.3611 55.5211 56.9898 54.9536 58.8814L54.5959 60.0756L55.7782 60.4805C57.6581 61.1219 59.5173 61.4441 61.3439 61.4441C62.3666 61.4441 63.3804 61.3436 64.3765 61.1396C67.8938 60.4214 71.1422 58.4351 73.7669 55.3966C76.3266 52.432 78.1651 48.6191 79.0725 44.3717L80.1365 39.4238L76.8172 43.2544ZM63.8533 58.6006C61.938 58.9908 59.9399 58.9258 57.8946 58.4056C58.3261 57.4183 58.8936 56.5493 59.5882 55.8134C61.2139 54.0931 63.0937 53.5877 65.476 52.9463C67.0721 52.5177 68.884 52.03 70.8673 51.093C72.3127 50.4103 73.6989 49.5561 75.0172 48.5393C72.6762 53.8567 68.5914 57.6311 63.8563 58.6006H63.8533Z" fill="white"/>
<path d="M75.0167 48.5392C72.6758 53.8566 68.5909 57.631 63.8558 58.6005C61.9405 58.9907 59.9424 58.9257 57.897 58.4055C58.3286 57.4182 58.8961 56.5492 59.5907 55.8133C61.2163 54.093 63.0962 53.5876 65.4785 52.9462C67.0746 52.5176 68.8865 52.0299 70.8698 51.093C72.3152 50.4102 73.7014 49.556 75.0197 48.5392H75.0167Z" fill="#B4BDC7"/>
<path d="M137.859 44.3067L144.205 57.0017H135.356V82.8023H122.664V18.506H137.859L144.205 31.201H135.356V44.3067H137.859Z" fill="#B4BDC7"/>
<path d="M181.716 82.9973L178.225 82.7992C168.102 82.2199 160.172 73.7872 160.172 63.5987V37.798C160.172 29.3564 165.802 21.7454 173.865 19.2862L175.506 18.7867L181.536 30.8432L178.669 31.186C175.361 31.5851 172.866 34.4255 172.866 37.798V63.5987C172.866 64.716 173.073 65.6707 173.487 66.4333L173.517 66.4924L181.719 83.0002L181.716 82.9973Z" fill="#B4BDC7"/>
<path d="M222.754 82.9116L219.251 82.7106C214.342 82.4298 209.79 80.3223 206.426 76.7725C203.057 73.2138 201.201 68.5348 201.201 63.5958V37.7094C201.201 33.5004 202.543 29.4983 205.085 26.1406C207.535 22.9011 211.017 20.4655 214.892 19.2862L216.532 18.7867L216.736 19.1975L221.823 30.9318L219.695 31.186C216.387 31.5851 213.893 34.3871 213.893 37.7123V63.5987C213.893 64.716 214.1 65.6707 214.513 66.4333L214.543 66.4894L222.757 82.9145L222.754 82.9116Z" fill="#B4BDC7"/>
<path d="M156.844 18.5297V31.2247H145.961L139.615 18.5297H156.844Z" fill="#B4BDC7"/>
<path d="M156.844 44.3333V57.0252H145.961L139.615 44.3333H156.844Z" fill="#B4BDC7"/>
<path d="M156.844 61.3612H144.149V82.6248H156.844V61.3612Z" fill="#B4BDC7"/>
<path d="M198.668 37.8217V39.8523H185.973V37.8217C185.973 36.6808 185.754 35.6433 185.352 34.9014L185.329 34.8541L177.002 18.4172L180.525 18.6182C190.696 19.2005 198.665 27.6333 198.665 37.8187L198.668 37.8217Z" fill="#B4BDC7"/>
<path d="M198.668 61.5919V63.6225C198.668 67.8315 197.326 71.8335 194.784 75.1912C192.334 78.4307 188.852 80.8633 184.977 82.0456L183.336 82.5451L177.307 70.4887L180.174 70.1458C183.481 69.7497 185.976 66.9447 185.976 63.6225V61.5919H198.671H198.668Z" fill="#B4BDC7"/>
<path d="M226.658 42.8702L238.333 69.8088C237.68 71.7242 236.716 73.536 235.466 75.1942C233.013 78.4337 229.531 80.8663 225.659 82.0486L224.016 82.5481L217.989 70.4916L220.853 70.1487C224.163 69.7527 226.658 66.9477 226.658 63.6254V42.8731V42.8702Z" fill="#B4BDC7"/>
<path d="M257.537 18.3256H257.502L243.746 48.6131L239.415 37.5911L234.379 24.7632L231.849 18.3256H218.096L218.108 18.3522L219.701 22.171L226.724 39.0305L239.566 69.4895H251.608L257.528 51.0397V82.6248H270.22V18.3256H257.537Z" fill="#B4BDC7"/>
</svg>
