<svg width="309" height="63" viewBox="0 0 309 63" fill="none" xmlns="http://www.w3.org/2000/svg">
<path d="M64.9947 11.6688H58.8448V0.0826402L42.4724 3.33866C41.4667 3.537 40.428 3.66923 39.4057 3.80145C36.306 4.21465 33.701 6.37982 32.4974 9.35487C31.3102 6.41288 28.7546 4.26424 25.6879 3.81798C24.6162 3.66923 23.528 3.537 22.4728 3.32214L6.14993 0V11.6688H0V40.4607H27.9467L32.5138 46.7248L36.9985 40.4607H65.0112V11.6688H64.9947ZM36.0422 38.9235H33.2558C33.6185 35.8989 36.0257 33.5354 38.9605 33.5354H58.8448V16.3793H60.51V35.7667H39.5706C37.8064 35.7667 36.4049 37.1385 36.0587 38.9235H36.0422ZM7.60085 1.53711L22.918 4.90883C23.7753 5.09064 24.6492 5.20633 25.5065 5.33856C29.0514 5.85093 31.7719 9.10695 31.7719 13.0406V29.3703L32.4974 29.767L33.2228 29.3703V13.0406C33.2228 9.09042 35.9928 5.81787 39.5706 5.33856C40.395 5.22286 41.2359 5.12369 42.0438 4.94188L57.4103 1.63628V31.9983H38.977C36.1247 31.9983 33.668 33.7999 32.5138 36.3948C31.3597 33.7999 28.903 31.9983 26.0506 31.9983H7.60085V1.53711ZM25.3582 35.7667H4.38574V16.3628H6.14993V33.5354H26.0342C28.969 33.5354 31.3762 35.8824 31.7389 38.9235H28.87C28.5238 37.1385 27.1223 35.7667 25.3582 35.7667ZM1.43443 13.2224H6.14993V14.8422H2.93482V37.3203H25.3417C26.3144 37.3203 27.1223 37.998 27.4191 38.9401H1.43443V13.2224ZM32.4809 44.2125L29.7604 40.4607H35.1519L32.4809 44.2125ZM63.5438 38.9235H37.4767C37.7734 37.998 38.5813 37.3203 39.5541 37.3203H61.928V14.8422H58.8283V13.2224H63.5438V38.9235Z" fill="#B4BDC7"/>
<path d="M231.834 37.5683C230.367 39.7334 228.949 40.1962 225.272 40.1962H218.595C218.595 39.9318 218.463 14.5116 218.595 12.6605C218.726 10.7763 220.26 10.611 220.309 10.5945L220.474 10.5449V8.42932H209.23V8.89211C210.862 9.6524 211.538 10.3962 211.538 12.4126V38.9897C211.538 40.8904 210.862 41.5019 209.23 42.2622V42.7746H231.076L232.362 37.6674L231.834 37.5517V37.5683ZM218.149 40.1962H216.715V12.4456C216.715 10.4457 218.397 9.6524 220.029 8.89211V10.2309C219.617 10.3962 218.281 10.8259 218.149 12.6274C218.017 14.4951 218.149 39.1384 218.149 40.1962Z" fill="#B4BDC7"/>
<path d="M306.491 9.68549C306.326 9.90035 306.145 10.0656 305.931 10.1648C305.716 10.264 305.485 10.3136 305.238 10.3136C304.991 10.3136 304.743 10.264 304.529 10.1813C304.315 10.0987 304.133 9.96646 303.969 9.81771C303.82 9.65243 303.688 9.47062 303.606 9.25576C303.523 9.04089 303.474 8.79297 303.474 8.54505C303.474 8.29713 303.523 8.04921 303.606 7.83434C303.688 7.61948 303.804 7.42114 303.969 7.27239C304.117 7.10711 304.298 6.99141 304.529 6.90877C304.743 6.82613 304.974 6.77655 305.238 6.77655C305.469 6.77655 305.683 6.80961 305.881 6.89225C306.079 6.97489 306.26 7.10711 306.409 7.30545L306.145 7.52031C306.046 7.35503 305.898 7.23934 305.733 7.17322C305.568 7.10711 305.403 7.05753 305.222 7.05753C305.007 7.05753 304.809 7.09058 304.628 7.17322C304.447 7.25586 304.298 7.35503 304.183 7.48726C304.067 7.61948 303.969 7.78476 303.903 7.96657C303.837 8.14838 303.804 8.34671 303.804 8.56158C303.804 8.77644 303.837 8.97478 303.903 9.15659C303.969 9.3384 304.067 9.50368 304.183 9.6359C304.315 9.76813 304.463 9.88382 304.628 9.94993C304.809 10.0326 305.007 10.0656 305.222 10.0656C305.304 10.0656 305.403 10.0656 305.485 10.0326C305.568 9.99952 305.667 9.98299 305.749 9.93341C305.832 9.88382 305.914 9.83424 305.997 9.76813C306.079 9.70201 306.145 9.61937 306.211 9.53673L306.475 9.73507L306.491 9.68549Z" fill="#B4BDC7"/>
<path d="M305.056 12.0985C303.061 12.0985 301.429 10.4622 301.429 8.46234C301.429 6.46245 303.061 4.82617 305.056 4.82617C307.051 4.82617 308.684 6.46245 308.684 8.46234C308.684 10.4622 307.051 12.0985 305.056 12.0985ZM305.056 5.28896C303.309 5.28896 301.891 6.71037 301.891 8.46234C301.891 10.2143 303.309 11.6357 305.056 11.6357C306.804 11.6357 308.222 10.2143 308.222 8.46234C308.222 6.71037 306.804 5.28896 305.056 5.28896Z" fill="#B4BDC7"/>
<path d="M258.891 8.46228V8.95812C260.738 9.78452 260.606 10.7597 259.419 12.3464L251.9 22.4615L245.981 14.0322C245.833 13.8174 245.668 13.619 245.519 13.4207C245.173 12.991 244.547 12.0158 244.728 11.1564C244.843 10.6109 245.289 10.1812 246.063 9.86716L246.212 9.81758L246.245 8.47881H245.503H233.549V8.97465C235.363 9.768 236.253 10.7762 237.572 12.6108L247.366 26.2299V39.0226C247.366 40.9234 246.69 41.5349 245.058 42.2952V42.791H254.818L254.851 42.2952C253.219 41.5349 252.543 40.9234 252.543 39.0226V26.1969L262.667 12.5778C263.986 10.8093 264.81 9.75147 266.376 8.95812V8.46228H258.891ZM243.574 13.1232C241.661 10.1647 243.458 9.99939 245.486 9.07382V9.63577C244.678 9.99939 244.464 10.4291 244.316 11.0902C244.002 12.4786 245.107 13.8008 245.14 13.8339L251.62 22.8747L251.01 23.7507L243.557 13.1232H243.574Z" fill="#B4BDC7"/>
<path d="M288.716 23.0071C282.979 20.2303 280.539 18.3627 279.813 16.1645C279.813 16.1149 279.813 16.0488 279.797 15.9992C279.714 15.4537 279.747 14.6439 280.374 13.8671C281.281 12.7431 283.193 12.049 285.881 11.8837C286.029 11.8837 286.177 11.8837 286.326 11.8837C291.503 11.8837 295.064 17.4536 295.114 17.5198L295.196 17.652L296.021 17.4206L295.806 10.6937C293.597 9.22267 289.129 8.03265 286.078 8.03265C279.088 8.03265 274.999 11.5531 274.999 16.1479C274.999 20.7427 279.269 23.6847 285.435 26.4449C292.739 29.6844 293.91 31.4033 293.91 34.4279C293.91 38.0641 290.744 41.0392 285.65 41.0392C280.555 41.0392 276.911 38.4938 273.284 33.2379L272.641 33.4197V39.3037C276.598 41.6342 280.868 43.3861 285.435 43.3861C293.168 43.3861 299.12 39.6839 299.12 33.7172C299.12 27.7506 293.96 25.5689 288.716 23.0401V23.0071ZM285.864 10.1482C289.195 10.0987 292.047 11.7845 294.471 14.9744C295.13 15.8835 295.575 16.6438 295.724 17.0239L295.279 17.1066C294.669 16.181 291.074 11.173 285.765 11.5035C282.896 11.6854 281.248 12.3299 280.176 13.5034C279.994 13.7018 279.698 14.0158 279.582 14.2637C279.731 11.8837 281.874 10.1978 285.864 10.1317V10.1482Z" fill="#B4BDC7"/>
<path d="M162.932 36.1303C162.932 36.1303 162.025 39.0557 157.013 39.0557L144.284 39.0227L161.811 8.52845L161.959 8.46234H139.47L139.437 13.272L139.965 13.3877C141.432 11.2225 142.85 10.7597 146.527 10.7597H155.265L136.799 42.7746H164.482V36.0972L162.915 36.1303H162.932ZM157.392 40.1466H143.641L144.02 39.4855L157.013 39.5185C161.745 39.5185 162.882 37.2046 163.212 36.5931H163.971C163.938 36.841 163.822 37.2211 163.525 37.7005C163.443 37.8327 163.361 37.9484 163.278 38.0641C163.229 38.1302 163.196 38.1798 163.146 38.2459C161.893 39.8656 160.492 40.1466 157.376 40.1466H157.392Z" fill="#B4BDC7"/>
<path d="M198.743 38.5765L186.493 7.10706H185.998L173.435 38.6756C172.66 40.659 171.934 41.4854 170.566 42.2953V42.7911H178.282H178.744V42.0308L178.546 41.9978C178.546 41.9978 177.804 41.849 177.507 41.2705C177.21 40.692 177.26 39.9317 177.656 38.9731C177.985 38.1798 178.859 35.9485 179.947 33.1387H191.802L193.781 38.0806C194.621 40.1301 194.555 41.3532 192.659 42.3118V42.8076H201.794V42.3118C200.211 41.3532 199.452 40.4441 198.743 38.6095V38.5765ZM177.227 38.7583C176.782 39.8491 176.732 40.7416 177.095 41.4358C177.095 41.4358 177.26 41.7333 177.359 41.8159C177.474 41.9151 177.771 42.2291 178.266 42.2457V42.4605C177.87 42.411 177.26 42.3118 176.765 42.0473C176.732 42.0308 176.6 41.9316 176.551 41.9151C175.512 41.2044 175.479 40.3945 176.106 38.8409L178.463 33.1057H179.453C178.397 35.8328 177.54 37.9814 177.227 38.7583ZM179.057 31.2876L185.124 15.6521L185.685 17.09C184.333 20.5939 182.058 26.4779 180.178 31.2711H179.073L179.057 31.2876ZM180.673 31.2876C182.453 26.7258 184.58 21.2551 185.932 17.7511L191.142 31.1719L180.689 31.2711L180.673 31.2876Z" fill="#B4BDC7"/>
<path d="M127.714 41.6671C125.472 40.8738 125.538 38.8078 125.555 38.6921V12.7926C125.555 10.0986 127.599 9.60272 127.681 9.58619L127.863 9.55313V8.46228H116.915V8.92507C118.547 9.68536 119.223 10.4291 119.223 12.4455V39.0226C119.223 40.9234 118.547 41.5349 116.915 42.2952V42.791H127.813L127.863 41.7498L127.698 41.7002L127.714 41.6671ZM127.368 42.477C127.187 42.4439 126.956 42.3944 126.626 42.2456C126.494 42.1795 126.379 42.1299 126.264 42.0638C126.066 41.9481 125.818 41.8159 125.538 41.6175C125.505 41.5845 125.472 41.568 125.423 41.5349C125.324 41.4688 125.225 41.3861 125.142 41.287C125.109 41.2539 125.076 41.2043 125.027 41.1713C124.615 40.6754 124.466 40.0143 124.417 39.5185C124.417 39.3532 124.384 39.1879 124.384 39.0061V12.4455C124.384 11.1894 124.648 10.4291 125.241 9.85064C125.241 9.85064 125.439 9.68536 125.522 9.61924C126.544 8.94159 127.038 8.77631 127.368 8.69367V9.18951C126.791 9.38785 125.06 10.2143 125.06 12.7926V38.6755C125.06 38.6755 124.862 41.0886 127.368 42.0638V42.4935V42.477Z" fill="#B4BDC7"/>
<path d="M82.0595 8.46234V8.92513C83.6918 9.68542 84.3678 10.4292 84.3678 12.4456V39.0227C84.3678 40.9234 83.6918 41.535 82.0595 42.2952V42.7911H91.8203L91.8533 42.2952C90.221 41.535 89.545 40.9234 89.545 39.0227L89.512 23.9987H97.4261C100.031 23.9987 101.202 24.6102 101.779 26.0812H102.274V19.9659H101.696C101.086 21.1228 99.9158 21.7674 97.4261 21.7674H89.512V11.9663H98.3165C101.713 11.9663 102.62 12.5448 103.279 12.9745L103.411 13.0571C104.071 13.4703 104.664 14.4786 104.681 14.4786L104.763 14.6273L106.016 14.3298V8.46234H82.0595ZM104.977 14.0819C104.78 13.7678 104.252 13.0241 103.658 12.6439L103.527 12.5613C102.818 12.0985 101.861 11.487 98.3165 11.487H89.4955V10.7597H98.91C102.521 10.7597 103.955 11.206 105.406 13.3051C105.571 13.5695 105.637 13.7678 105.67 13.9166L104.977 14.0819Z" fill="#B4BDC7"/>
<path d="M257.34 62.2116L256.368 59.8151C256.368 59.8151 256.318 59.7655 256.285 59.7655H249.278C249.278 59.7655 249.212 59.782 249.195 59.8151L248.239 62.2116C248.19 62.3108 248.107 62.3439 247.975 62.3439H247.563C247.398 62.3439 247.349 62.2778 247.382 62.1455L252.229 50.3445C252.279 50.2453 252.361 50.2123 252.493 50.2123H253.054C253.185 50.2123 253.268 50.2619 253.317 50.3445L258.214 62.1455V62.2116C258.214 62.2116 258.165 62.3273 258.033 62.3273H257.604C257.472 62.3273 257.39 62.2778 257.34 62.1951V62.2116ZM249.476 59.1705C249.476 59.1705 249.525 59.2035 249.558 59.2035H256.021C256.021 59.2035 256.071 59.2035 256.104 59.1705C256.12 59.154 256.137 59.1374 256.104 59.1044L252.839 51.1874C252.839 51.1874 252.806 51.1544 252.773 51.1544C252.74 51.1544 252.724 51.1544 252.707 51.1874L249.476 59.1044C249.476 59.1044 249.476 59.154 249.476 59.1705Z" fill="#B4BDC7"/>
<path d="M262.32 62.0132C261.611 61.6992 261.067 61.253 260.671 60.691C260.276 60.1125 260.078 59.4679 260.078 58.7242V50.3775C260.078 50.2618 260.144 50.2122 260.292 50.2122H260.688C260.82 50.2122 260.902 50.2783 260.902 50.3775V58.7737C260.902 59.6993 261.265 60.4431 261.974 61.0216C262.683 61.6 263.623 61.881 264.793 61.881C265.964 61.881 266.904 61.6 267.629 61.0216C268.355 60.4431 268.701 59.6993 268.701 58.7737V50.3775C268.701 50.2618 268.767 50.2122 268.915 50.2122H269.311C269.443 50.2122 269.525 50.2783 269.525 50.3775V58.7242C269.525 59.4679 269.327 60.1125 268.932 60.691C268.536 61.2695 267.992 61.6992 267.283 62.0132C266.574 62.3273 265.75 62.476 264.81 62.476C263.87 62.476 263.079 62.3273 262.37 62.0132H262.32Z" fill="#B4BDC7"/>
<path d="M273.796 62.1784V50.3939C273.796 50.2782 273.862 50.2286 274.01 50.2286H278.742C280.012 50.2286 281.018 50.5096 281.76 51.0881C282.502 51.6666 282.881 52.4434 282.881 53.4351V59.1538C282.881 60.1455 282.502 60.9388 281.76 61.5008C281.018 62.0792 280.012 62.3602 278.742 62.3602H274.01C273.879 62.3602 273.796 62.3106 273.796 62.1949V62.1784ZM274.686 61.7487H278.775C279.798 61.7487 280.589 61.5173 281.183 61.038C281.76 60.5587 282.056 59.9306 282.056 59.1207V53.4847C282.056 52.6583 281.76 52.0137 281.183 51.5509C280.589 51.0716 279.798 50.8402 278.775 50.8402H274.686C274.686 50.8402 274.604 50.8567 274.604 50.9063V61.6826C274.604 61.6826 274.637 61.7487 274.686 61.7487Z" fill="#B4BDC7"/>
<path d="M286.557 62.1785V50.394C286.557 50.2783 286.623 50.2287 286.771 50.2287H287.167C287.299 50.2287 287.381 50.2948 287.381 50.394V62.1785C287.381 62.2942 287.315 62.3438 287.167 62.3438H286.771C286.639 62.3438 286.557 62.2942 286.557 62.1785Z" fill="#B4BDC7"/>
<path d="M299.154 50.394V50.6584C299.154 50.7741 299.088 50.8237 298.939 50.8237H294.57C294.57 50.8237 294.488 50.8402 294.488 50.8898V62.1785C294.488 62.2942 294.422 62.3438 294.273 62.3438H293.861C293.713 62.3438 293.647 62.2942 293.647 62.1785V50.8898C293.647 50.8898 293.614 50.8237 293.564 50.8237H289.376C289.228 50.8237 289.162 50.7741 289.162 50.6584V50.394C289.162 50.2783 289.228 50.2287 289.376 50.2287H298.956C299.104 50.2287 299.17 50.2948 299.17 50.394H299.154Z" fill="#B4BDC7"/>
</svg>
