<svg width="295" height="101" viewBox="0 0 295 101" fill="none" xmlns="http://www.w3.org/2000/svg">
<path d="M165.608 24.1676V76.1051H148.097V56.9598H131.924V76.1051H114.413V24.1676H131.924V42.5699H148.097V24.1676H165.608Z" fill="#B4BDC7"/>
<path d="M220.437 76.1051L220.288 52.4335L209.013 71.4302H201.298L190.022 53.2509V76.1051H174.072V24.1676H188.468L205.384 51.8453L221.855 24.1676H236.251L236.4 76.1051H220.449H220.437Z" fill="#B4BDC7"/>
<path opacity="0.85" d="M242.765 50.1364C242.765 34.1861 255.006 22.9788 271.699 22.9788C281.866 22.9788 289.879 26.6877 294.999 33.3687L283.947 43.2386C280.907 39.3811 277.272 37.152 272.597 37.152C265.328 37.152 260.43 42.1984 260.43 50.1364C260.43 58.0743 265.328 63.1207 272.597 63.1207C277.272 63.1207 280.907 60.8978 283.947 57.0341L294.999 66.904C289.879 73.5788 281.866 77.2939 271.699 77.2939C255.006 77.2939 242.765 66.0928 242.765 50.1364Z" fill="#B4BDC7"/>
<path d="M53.5289 27.9508L53.7456 28.1613L53.2874 28.4647L52.4081 27.5854L53.5289 27.9508Z" fill="#B4BDC7"/>
<path d="M55.5535 24.0004L55.6278 23.9323L55.9374 24.9353V26.7L55.4668 26.6195L55.3864 26.539L55.5535 24.0004Z" fill="#E9ECEF"/>
<path d="M55.5535 53.6843L56.2532 54.384L59.4606 54.9227L55.0519 51.3933L55.5535 53.6843Z" fill="#B4BDC7"/>
<path d="M55.5535 57.4675L55.4854 57.3994L55.0519 59.3312H55.9374L55.5535 57.4675Z" fill="#2E76B7"/>
<path d="M55.5598 88.3217L55.5536 84.7242L57.3554 86.526L55.5598 88.3217Z" fill="#06529C"/>
<path d="M55.5603 89.8882L59.2507 93.5786C58.0309 93.6343 56.7987 93.659 55.5603 93.659V89.8882Z" fill="#06529C"/>
<path d="M55.5533 12.2729V17.2574L55.0766 17.7342L52.1107 14.7621L55.0766 11.7961L55.5533 12.2729Z" fill="#427CCC"/>
<path d="M54.2038 25.3565L55.5598 24.0004V26.0561C55.5165 26.2233 55.4607 26.3905 55.3926 26.5391L54.21 25.3565H54.2038Z" fill="#E9ECEF"/>
<path d="M28.9534 57.8329L38.4517 67.3312C36.2722 69.3931 32.8047 69.9194 30.1422 68.3529C26.1051 65.9752 26.5943 61.6657 28.7738 58.1734C28.8419 58.062 28.9038 57.9505 28.9534 57.8329Z" fill="#E9ECEF"/>
<path d="M38.5811 58.0867C39.9433 60.4644 41.1321 62.8173 39.838 65.4551L26.9713 52.5883L38.8226 40.7371L52.5562 54.4706H39.9062C38.5068 54.9722 37.77 56.675 38.5811 58.0929V58.0867Z" fill="#E9ECEF"/>
<path d="M51.0148 80.0988L50.829 79.9254L48.0179 77.1019L44.9591 80.1731L47.7702 82.9842L47.9436 83.17L48.0117 83.2381L51.0829 80.1669L51.0148 80.0988ZM46.6866 75.5725L38.4514 67.3249C36.2719 69.3868 32.8106 69.9194 30.1419 68.3466C26.1048 65.9751 26.594 61.6594 28.7735 58.1672C28.8416 58.0619 28.9035 57.9381 28.9469 57.8204L25.5785 54.452H1.88837L39.083 91.6591L46.6742 84.074L42.4266 79.8264L46.6866 75.5663V75.5725ZM38.5815 78.3341L39.9932 79.7335L38.5815 81.1452L37.1821 79.7335L38.5815 78.3341ZM38.9158 87.3928L36.6062 85.0709L38.9158 82.7613L41.2254 85.0709L38.9158 87.3928Z" fill="#B4BDC7"/>
<path d="M45.4475 87.2921L42.3258 90.4138L45.4476 93.5356L48.5693 90.4138L45.4475 87.2921Z" fill="#D0E8F4"/>
<path d="M50.9035 97.6466L50.9221 98.2473L48.8912 100.284L46.5692 97.9562L48.8912 95.6343L50.9035 97.6466Z" fill="#D0E8F4"/>
<path d="M68.2841 82.2598C67.3367 82.8604 65.6216 83.4053 64.7547 83.139C64.699 83.1204 63.5782 82.7737 63.0829 82.6808C63.0457 82.6746 62.9157 82.6499 62.7423 82.6065C62.408 82.5198 62.3399 82.4641 62.2346 82.4517C61.8012 82.3898 61.6216 83.1143 61.2315 83.139C60.6309 83.1762 60.4204 81.5229 59.4668 81.3743C59.1944 81.331 58.5814 81.3743 58.5876 81.3743C57.2997 81.3062 56.8229 81.3743 56.8229 81.3743C56.6 81.4053 56.309 81.4672 55.9684 81.5849L39.8447 65.455C41.1388 62.8173 39.9438 60.4582 38.5878 58.0867C37.7767 56.6687 38.5135 54.9722 39.9129 54.4644H52.5629L55.4978 57.3994L55.9436 69.0339L55.5659 69.6717C55.987 69.7522 56.408 69.8327 56.8291 69.9193C57.4297 69.9565 58.3523 69.9937 59.473 69.9193C62.9157 69.6964 63.894 68.7058 65.6463 69.0401C68.3522 69.554 69.8692 72.2227 70.0549 72.5695C71.9063 75.9379 70.8723 80.6313 68.2903 82.2722L68.2841 82.2598Z" fill="#B4BDC7"/>
<path d="M58.0548 14.762L55.6214 17.1892V12.341L58.0548 14.762Z" fill="#5BB5DC"/>
<path d="M59.5167 13.6476L56.5508 10.6816C58.4641 10.7002 60.3526 10.7931 62.2164 10.9417L59.5167 13.6476Z" fill="#5BB5DC"/>
<path d="M72.8719 51.9939C72.8719 52.1796 72.8471 52.3406 72.8471 52.3406C72.8347 52.4211 72.8223 52.5016 72.7914 52.5883C72.7666 52.7059 72.7295 52.8174 72.6737 52.935C72.649 52.997 72.6118 53.0651 72.587 53.1208C72.5561 53.1827 72.5189 53.2446 72.488 53.3004C72.457 53.3623 72.4137 53.418 72.3703 53.4676C72.3332 53.5233 72.296 53.579 72.2403 53.6223C72.0236 53.901 71.7202 54.1239 71.3734 54.2849L70.9276 54.9226C66.0051 54.7121 61.0825 54.5016 56.16 54.2911L55.6213 53.7524C55.4293 49.1456 55.2436 44.5389 55.0516 39.9321C54.8349 39.5049 54.8906 39.1333 55.0516 39.0528C55.1755 38.9909 55.3798 39.0838 55.5532 39.2386V39.2076C55.2622 37.8207 54.129 37.1148 52.8535 37.3315C52.5191 37.3687 52.1786 37.4677 51.8504 37.6597C50.8659 38.2231 49.8752 38.7556 48.8783 39.0962C47.479 39.5668 46.0486 39.6225 44.4326 38.7433C43.6524 38.316 42.9713 37.7525 42.4202 37.0838C42.4202 37.0838 42.1725 36.7928 41.962 36.4832C41.4543 35.734 39.7701 32.6814 40.9403 29.3626C41.1694 28.7186 41.801 26.9291 43.5843 25.8332C46.6369 23.9632 50.6925 25.5979 51.5223 26.7124C51.6028 26.8177 51.8814 27.2264 52.4015 27.5917C52.8907 27.9322 53.3798 28.087 53.739 28.1675L70.7419 45.1766C70.7357 45.2385 70.7295 45.3005 70.7295 45.3624C70.7295 45.3624 70.7109 45.6658 70.7233 45.963C70.7419 46.5265 72.3146 49.1952 72.6861 50.5202C72.6861 50.5202 72.8719 51.1766 72.8657 52.0063L72.8719 51.9939Z" fill="#B4BDC7"/>
<path d="M71.3614 18.8178L66.0178 24.1676L62.8537 21.0035L60.5256 23.3317L58.3708 21.1893L55.6278 23.9323V25.6969C55.6278 25.9075 55.6031 26.1056 55.5597 26.2976V26.3409C55.5349 26.44 55.504 26.5329 55.473 26.6257L71.6029 42.7618C74.8474 40.4522 78.383 39.7649 80.6306 40.8113C82.2777 41.5791 83.6708 43.4924 83.7761 43.8454C83.8628 44.1364 83.9061 44.4212 83.9061 44.4212C83.9247 44.5265 83.9433 44.6255 83.9495 44.7308C83.9681 44.8484 83.9743 44.9537 83.9866 45.0652C83.999 45.1766 84.0052 45.2943 84.0052 45.4181V45.4986C83.6894 45.7525 81.2127 47.7834 81.5099 50.514C81.5532 50.9289 81.6771 51.4676 81.9743 52.0558V52.0806C81.9681 52.1363 81.9681 52.1796 81.9681 52.2292C81.9309 53.3375 82.6182 54.2725 83.2746 54.9164C90.0051 54.7059 96.7233 54.4954 103.454 54.2787L105.138 52.5883L71.3614 18.8116V18.8178ZM63.1138 29.0096L60.8042 26.7L63.1262 24.3905L65.4358 26.7L63.1138 29.0096ZM70.154 16.5144L65.6834 12.0377L61.2129 16.5144L65.6834 20.9849L70.154 16.5144ZM59.8445 17.5918L61.3243 19.0716L61.1324 19.276L59.2625 21.1397L57.5721 19.4493L57.2006 19.0778L59.2625 17.0159L59.634 17.3874L59.8445 17.598V17.5918Z" fill="#B4BDC7"/>
<path d="M57.3552 86.526L54.7793 89.108L52.5379 91.337L52.0178 90.8108L47.733 86.526L52.5503 81.7087L55.4852 84.656L55.5533 84.7241L57.3552 86.526Z" fill="#B4BDC7"/>
<path d="M59.5099 93.8324L54.2468 99.0893L50.8165 95.659L48.9961 93.8324L52.0177 90.8108L54.2468 88.5755L54.7793 89.108L55.4852 89.8139L55.5595 89.8882L59.2498 93.5786L59.5099 93.8324Z" fill="#E9ECEF"/>
<path d="M58.0549 14.7621L55.0766 17.7342L52.1107 14.7621L55.0766 11.7961L55.5533 12.2729L55.6215 12.341L58.0549 14.7621Z" fill="#B4BDC7"/>
<path d="M63.145 10.0129L62.2163 10.9355L59.5166 13.6475L56.5507 10.6816L55.882 10.0129L59.5166 6.38446L63.145 10.0129Z" fill="#B4BDC7"/>
<path d="M51.2131 97.9562L50.9221 98.2473L48.8912 100.284L46.5692 97.9562L48.8912 95.6343L50.9035 97.6466L51.2131 97.9562Z" fill="#B4BDC7"/>
<path d="M57.6335 -4.24651e-05L55.5972 2.03552L57.6328 4.07179L59.6691 2.03623L57.6335 -4.24651e-05Z" fill="#B4BDC7"/>
<path d="M45.4475 87.2921L42.3258 90.4138L45.4476 93.5356L48.5693 90.4138L45.4475 87.2921Z" fill="#E9ECEF"/>
<path d="M62.1571 3.02846L60.169 5.01587L62.0951 6.94266L64.0832 4.95525L62.1571 3.02846Z" fill="#B4BDC7"/>
<path d="M51.0152 80.0989L47.944 83.1639L47.7706 82.9781L44.9595 80.167L48.0183 77.0958L50.8294 79.9193L51.0152 80.0989Z" fill="white"/>
<path d="M51.0833 80.167L48.0183 83.2382L47.944 83.1639L47.7706 82.9781L44.9595 80.167L48.0183 77.0958L50.8294 79.9193L51.0152 80.0989L51.0833 80.167Z" fill="#B4BDC7"/>
<path d="M59.8447 17.5918L61.3245 19.0717L61.1326 19.276L59.6465 17.7961L59.8447 17.5918Z" fill="white"/>
<path d="M70.1538 16.5144L65.677 20.9849L61.2065 16.5144L65.677 12.0377L70.1538 16.5144Z" fill="white"/>
<path d="M59.6274 17.3813L57.5655 19.4432L59.2621 21.1336L61.132 19.276L61.324 19.0717L59.8441 17.5918L59.6274 17.3813Z" fill="white"/>
<path d="M70.1538 16.5144L65.677 20.9849L61.2065 16.5144L65.677 12.0377L70.1538 16.5144Z" fill="#B4BDC7"/>
<path d="M61.3248 19.0716L61.1329 19.2759L59.2629 21.1335L57.5663 19.4431L57.1948 19.0716L59.2629 17.0097L61.3248 19.0716Z" fill="#B4BDC7"/>
<path d="M103.355 54.384L66.0555 91.6715L56.0185 81.6468C56.5572 80.9843 57.3931 80.6066 58.26 80.6933C58.5757 80.749 58.9101 80.8605 59.2507 81.04C60.1423 81.5354 60.9968 81.9936 61.8636 82.3279C61.9875 82.3713 62.1175 82.4146 62.2413 82.458C62.4085 82.5137 62.5757 82.5632 62.7553 82.619C62.8729 82.6437 62.9844 82.6747 63.0896 82.6871C64.3094 82.9533 65.5602 82.8728 66.8791 82.1484C70.2227 80.3342 71.4549 75.845 69.523 72.5695C67.1577 68.5324 62.8358 69.034 59.3435 71.2135C57.8327 72.1485 55.9504 71.2816 55.5603 69.6717V57.4737L65.8945 67.808L81.2752 52.4273L71.6097 42.7618C73.5415 39.6906 77.8263 38.6071 80.9842 40.4584C82.5074 41.3563 83.3928 42.5389 83.7767 43.8454C83.8324 44.0312 83.8758 44.2231 83.9067 44.4212C83.9253 44.5265 83.9439 44.6256 83.9501 44.7308C83.9686 44.8485 83.9748 44.9537 83.9872 45.0652C83.9934 45.1271 84.0058 45.1952 84.0058 45.2571V45.4181C83.9687 47.0776 83.3247 48.8237 82.3464 50.4088C82.0182 50.9227 81.9129 51.4676 81.9687 51.9877C81.9687 52.0125 81.9687 52.0311 81.9749 52.0558V52.0806C82.0306 53.0341 82.6374 53.9258 83.56 54.2849C83.6591 54.3221 83.7643 54.353 83.8696 54.384H103.349H103.355Z" fill="#B4BDC7"/>
<path d="M55.5536 38.9848V48.0373V53.6843L39.2442 37.3749L23.8635 52.7555L25.5787 54.4706H1.88233L0 52.5883L39.0894 13.5114L53.5288 27.957C52.9592 28.0499 52.34 27.957 51.7703 27.6041C48.2781 25.4245 43.9562 24.9292 41.5847 28.9663C40.1977 31.3254 40.4454 34.3161 41.9686 36.477C42.111 36.6876 42.2596 36.8857 42.4268 37.0777C42.9283 37.6659 43.5413 38.1612 44.241 38.5389C45.8819 39.4306 47.3989 39.3563 48.8787 38.8547C49.8632 38.5266 50.8477 38.0002 51.8632 37.4368C52.1976 37.2572 52.5257 37.1458 52.8477 37.09C54.0675 36.9662 55.2502 37.765 55.5474 38.9971L55.5536 38.9848Z" fill="#E9ECEF"/>
<path d="M72.8474 52.3406C72.8784 52.1487 72.8907 51.9443 72.8722 51.7462C72.8722 51.3251 72.7731 50.8979 72.5378 50.4892C71.6338 48.9103 70.8103 47.3438 70.7298 45.7029C70.7298 45.5853 70.7298 45.4676 70.736 45.35C70.7421 45.2881 70.7483 45.2323 70.7545 45.1704L78.1662 52.5821L66.315 64.4334L56.2593 54.3777H71.0208C71.1199 54.353 71.2251 54.3158 71.318 54.2787H71.3242C71.6833 54.1301 71.9991 53.8948 72.2406 53.6161C72.2963 53.5666 72.3335 53.5171 72.3706 53.4613C72.414 53.4056 72.4511 53.3499 72.4883 53.2942C72.5192 53.2384 72.5564 53.1765 72.5873 53.1146C72.6121 53.0589 72.6493 52.9908 72.674 52.9288C72.7297 52.8112 72.7607 52.6997 72.7917 52.5821C72.8164 52.5016 72.835 52.4211 72.8474 52.3344V52.3406Z" fill="#B4BDC7"/>
</svg>
